<svg xmlns="http://www.w3.org/2000/svg" width="140" height="77" viewBox="0 0 140 77" fill="none"><path d="M12.243 47.8586L12.2805 47.8937L12.5056 55.4411C12.5181 55.7336 12.5056 55.9794 12.4806 56.1549C12.4556 56.3421 12.4055 56.4942 12.3055 56.5995C12.2054 56.7048 12.0679 56.7868 11.8803 56.8453C11.6927 56.8921 11.4551 56.9389 11.1425 56.9623L11.18 57.3718C11.305 57.3718 11.4426 57.3718 11.6052 57.3601C11.7678 57.3601 11.9428 57.3484 12.1179 57.3484C12.293 57.3484 12.4806 57.3484 12.6556 57.3484C12.8432 57.3484 13.0183 57.3367 13.1809 57.3367C13.381 57.3367 13.6061 57.3367 13.8312 57.3484C14.0563 57.3484 14.2814 57.3484 14.5065 57.3484C14.7316 57.3484 14.9567 57.3484 15.1568 57.3601C15.3569 57.3601 15.5444 57.3718 15.6945 57.3718L15.7195 56.9389C15.3443 56.9272 15.0442 56.8921 14.8191 56.857C14.594 56.8219 14.4189 56.7516 14.2939 56.6697C14.1688 56.5878 14.0813 56.4825 14.0438 56.3538C13.9937 56.2251 13.9687 56.073 13.9562 55.874L13.6936 47.8703C13.6811 47.5778 13.6936 47.332 13.7311 47.1448C13.7686 46.9576 13.8437 46.8055 13.9562 46.7002C14.0813 46.5949 14.2439 46.5129 14.469 46.4661C14.6941 46.4193 14.9942 46.3725 15.3694 46.3491L15.3443 45.9396C15.2193 45.9396 15.0192 45.9396 14.7441 45.9513C14.469 45.9513 14.1563 45.963 13.8437 45.963C13.531 45.963 13.2184 45.963 12.9183 45.963C12.6181 45.963 12.3805 45.963 12.218 45.963C12.0804 46.2672 11.9428 46.5832 11.8053 46.8991C11.6677 47.215 11.5301 47.5193 11.3801 47.8352L7.841 55.4762H7.80348L4.18937 47.9873C4.0268 47.648 3.86422 47.3086 3.71416 46.981C3.55159 46.6534 3.40152 46.314 3.25145 45.9747C3.02635 45.9747 2.75123 45.9747 2.43859 45.9747C2.12595 45.9747 1.81331 45.9747 1.50067 45.9747C1.18803 45.9747 0.912908 45.9747 0.662796 45.963C0.412684 45.963 0.237606 45.9513 0.137561 45.9513L0.11255 46.3842C0.437695 46.3959 0.725324 46.431 0.96293 46.4895C1.21304 46.5481 1.41313 46.6534 1.5757 46.7938C1.66324 46.8757 1.75078 46.981 1.8008 47.0746C1.86333 47.1799 1.91335 47.2969 1.93837 47.4491C1.97588 47.5895 1.98839 47.765 2.00089 47.9756C2.0134 48.1745 2.0134 48.4203 2.00089 48.7128L1.73828 54.856C1.72577 55.3358 1.68825 55.7102 1.63823 55.9794C1.58821 56.2485 1.50067 56.4474 1.37561 56.5878C1.25056 56.7282 1.07548 56.8102 0.85038 56.857C0.625279 56.9038 0.337651 56.9389 0 56.974L0.0375167 57.3835C0.337651 57.3835 0.662796 57.3835 1.01295 57.3718C1.36311 57.3601 1.70076 57.3601 2.0259 57.3601C2.43859 57.3601 2.80125 57.3601 3.11389 57.3718C3.42653 57.3835 3.72666 57.3835 3.98928 57.3835L4.01429 56.9506C3.68915 56.9272 3.42653 56.8921 3.22644 56.857C3.02635 56.8219 2.86378 56.7516 2.75123 56.6463C2.63868 56.541 2.56364 56.3772 2.53863 56.1666C2.50112 55.956 2.50112 55.6634 2.51362 55.289L2.76373 48.4437L2.81376 48.4203C3.56409 49.9649 4.30192 51.4743 5.02724 52.9604C5.75257 54.4465 6.47789 55.9677 7.20322 57.5356L7.81599 57.4654C8.54131 55.8272 9.26664 54.2242 9.99196 52.6445C10.7173 51.0648 11.4551 49.4734 12.2054 47.8586H12.243ZM24.1483 56.0262C24.711 56.5293 25.3738 56.9272 26.1492 57.1963C26.9245 57.4654 27.7749 57.6058 28.7003 57.6058C29.6507 57.6058 30.5011 57.4537 31.2765 57.1495C32.0518 56.8453 32.7146 56.424 33.2649 55.8857C33.8151 55.3475 34.2528 54.7039 34.5529 53.9667C34.8656 53.2295 35.0156 52.4104 35.0156 51.5328C35.0156 50.6435 34.8656 49.8478 34.5529 49.1224C34.2403 48.4086 33.8151 47.7884 33.2523 47.2852C32.7021 46.7821 32.0268 46.3842 31.2515 46.1151C30.4761 45.846 29.6132 45.7056 28.6878 45.7056C27.7374 45.7056 26.887 45.8577 26.1117 46.1619C25.3363 46.4661 24.6735 46.8874 24.1233 47.4257C23.573 47.9639 23.1353 48.6075 22.8352 49.3447C22.5226 50.0819 22.3725 50.901 22.3725 51.7786C22.3725 52.6679 22.5226 53.4636 22.8352 54.189C23.1478 54.9028 23.5855 55.523 24.1358 56.0262H24.1483ZM24.5109 49.0287C24.7611 48.3969 25.0862 47.882 25.4989 47.4842C25.9116 47.0863 26.3868 46.8055 26.9245 46.6183C27.4623 46.4427 28.025 46.3491 28.6128 46.3491C29.163 46.3491 29.7008 46.4427 30.251 46.63C30.8013 46.8172 31.3015 47.1331 31.7392 47.5661C32.1769 48.0107 32.5395 48.5841 32.8272 49.3096C33.1023 50.0351 33.2523 50.9244 33.2523 51.9892C33.2523 52.8902 33.1273 53.6625 32.8772 54.2944C32.6271 54.9262 32.3019 55.4411 31.8892 55.8389C31.4766 56.2368 31.0013 56.5176 30.4636 56.7048C29.9259 56.8804 29.3631 56.974 28.7753 56.974C28.2251 56.974 27.6874 56.8804 27.1371 56.6931C26.5869 56.5059 26.0866 56.19 25.649 55.757C25.2113 55.3124 24.8486 54.739 24.561 54.0135C24.2858 53.288 24.1358 52.3987 24.1358 51.3339C24.1358 50.4329 24.2608 49.6606 24.5109 49.0287ZM42.7066 46.5481C42.8191 46.5949 42.9192 46.6534 43.0067 46.7236C43.0942 46.7938 43.1818 46.8874 43.2568 46.981C43.3443 47.0746 43.4069 47.1682 43.4569 47.2501C43.5069 47.332 43.5444 47.4491 43.582 47.5778C43.607 47.7065 43.632 47.882 43.6445 48.0809C43.657 48.2916 43.657 48.5607 43.657 48.8883V54.8443C43.657 55.3241 43.632 55.6985 43.582 55.9677C43.5319 56.2368 43.4444 56.4357 43.3068 56.5761C43.1693 56.7165 42.9942 56.7985 42.7816 56.8453C42.5565 56.8921 42.2814 56.9272 41.9437 56.9623L41.9812 57.3718C42.2814 57.3718 42.6065 57.3718 42.9567 57.3601C43.3068 57.3484 43.6445 57.3484 43.9696 57.3484C44.3823 57.3484 44.77 57.3484 45.1326 57.3601C45.5078 57.3718 45.8205 57.3718 46.0956 57.3718L46.1206 56.9389C45.7704 56.9155 45.4828 56.8804 45.2702 56.8453C45.0576 56.8102 44.8825 56.7399 44.7575 56.6346C44.6324 56.5293 44.5449 56.3655 44.4949 56.1549C44.4448 55.9443 44.4198 55.6517 44.4198 55.2773V48.3267L44.4699 48.3033L51.2979 55.8506C51.548 56.1315 51.7731 56.4006 51.9982 56.6814C52.2233 56.9506 52.4359 57.2431 52.661 57.5356L53.3238 57.4186V48.4788C53.3238 47.999 53.3488 47.6246 53.3988 47.3671C53.4489 47.098 53.5364 46.8991 53.6615 46.7587C53.7865 46.6183 53.9491 46.5364 54.1617 46.4895C54.3743 46.4427 54.6494 46.4076 54.9745 46.3725L54.962 45.963C54.837 45.963 54.6994 45.963 54.5494 45.9747C54.3868 45.9747 54.2242 45.9864 54.0491 45.9864C53.8741 45.9864 53.699 45.9981 53.5239 45.9981C53.3488 45.9981 53.1737 46.0098 53.0112 46.0098C52.5985 46.0098 52.2108 46.0098 51.8356 45.9981C51.4605 45.9864 51.1353 45.9864 50.8602 45.9864L50.8352 46.4193C51.1853 46.4427 51.473 46.4778 51.6856 46.5129C51.9107 46.5481 52.0858 46.6183 52.2108 46.7236C52.3359 46.8289 52.4234 46.9927 52.4734 47.2033C52.5234 47.414 52.5485 47.7065 52.5485 48.0809V54.9613L52.5109 54.9847L44.3323 46.0098C44.1072 46.0098 43.8571 46.0098 43.5945 46.0098C43.3318 46.0098 43.0692 46.0098 42.8316 46.0098C42.5815 46.0098 42.3564 46.0098 42.1563 45.9981C41.9562 45.9981 41.8062 45.9864 41.7061 45.9864L41.6811 46.4193C41.9187 46.431 42.1188 46.4544 42.2814 46.4778C42.4439 46.5012 42.5815 46.5364 42.6941 46.5832L42.7066 46.5481ZM68.8057 46.5481C69.2809 46.5481 69.6686 46.5832 69.9562 46.6651C70.2439 46.747 70.4815 46.8757 70.644 47.0629C70.8191 47.2501 70.9442 47.4842 71.0317 47.7767C71.1192 48.0692 71.2068 48.432 71.2818 48.8532L71.7695 48.8298C71.7695 48.5607 71.7695 48.315 71.782 48.0809C71.782 47.8469 71.7945 47.6246 71.8071 47.4023C71.8196 47.1799 71.8321 46.9459 71.8571 46.7119C71.8821 46.4778 71.9071 46.2204 71.9321 45.9396C71.4194 45.9396 70.9192 45.9396 70.4064 45.9513C69.9062 45.9513 69.4185 45.963 68.9558 45.963C68.4931 45.963 68.0429 45.963 67.5927 45.963C67.1425 45.963 66.7673 45.963 66.4797 45.963C66.1795 45.963 65.8544 45.963 65.5042 45.963C65.1541 45.963 64.7539 45.963 64.2912 45.963C63.8285 45.963 63.3533 45.963 62.8656 45.9513C62.3778 45.9513 61.8651 45.9396 61.3524 45.9396C61.3899 46.3608 61.4274 46.7353 61.4399 47.0629C61.4524 47.3906 61.4649 47.7299 61.4649 48.0809V48.8298L61.9527 48.8532C62.0277 48.4203 62.1152 48.0692 62.2028 47.7767C62.3028 47.4842 62.4279 47.2384 62.6155 47.0629C62.7905 46.8757 63.0281 46.747 63.3283 46.6651C63.6159 46.5832 64.0036 46.5481 64.4788 46.5481H65.8919V55.4411C65.8919 55.7453 65.8669 55.9911 65.8294 56.1783C65.7919 56.3655 65.7168 56.5176 65.5918 56.6229C65.4667 56.7282 65.2916 56.8102 65.054 56.857C64.8164 56.9038 64.5038 56.9389 64.1036 56.9623L64.1411 57.3718C64.3037 57.3718 64.4913 57.3718 64.6914 57.3601C64.8915 57.3601 65.1041 57.3484 65.3042 57.3484C65.5042 57.3484 65.7168 57.3484 65.9169 57.3484C66.117 57.3484 66.3046 57.3367 66.4672 57.3367C66.6673 57.3367 66.8924 57.3367 67.13 57.3484C67.3676 57.3484 67.6052 57.3484 67.8428 57.3484C68.0804 57.3484 68.318 57.3484 68.5431 57.3601C68.7682 57.3601 68.9683 57.3718 69.1559 57.3718L69.1809 56.9389C68.7682 56.9272 68.4305 56.8921 68.1929 56.857C67.9553 56.8219 67.7678 56.7516 67.6552 56.6697C67.5301 56.5878 67.4551 56.4825 67.4301 56.3538C67.3926 56.2251 67.3801 56.073 67.3801 55.874V46.5364H68.8307L68.8057 46.5481ZM86.5011 56.7868C86.301 56.8687 85.9509 56.9155 85.4757 56.9506L85.5132 57.3601C85.8758 57.3601 86.2385 57.3601 86.6012 57.3484C86.9638 57.3367 87.3265 57.3367 87.6891 57.3367C88.1268 57.3367 88.552 57.3367 88.9897 57.3484C89.4149 57.3601 89.8151 57.3601 90.1653 57.3601L90.2028 56.9272C89.8651 56.9038 89.6025 56.8687 89.3899 56.8336C89.1773 56.7985 89.0022 56.7165 88.8772 56.6112C88.7396 56.5059 88.6271 56.3538 88.5145 56.1549C88.4145 55.956 88.3019 55.6868 88.1644 55.3358L85.2881 47.5895C85.2005 47.332 85.1005 47.0395 84.9879 46.7236C84.8754 46.4076 84.7878 46.0566 84.6878 45.6822L83.8875 45.7758C83.7999 45.9864 83.6999 46.1736 83.5873 46.3491C83.4748 46.5247 83.3622 46.7353 83.2622 46.9693L79.7231 55.0198C79.5355 55.4294 79.3729 55.7453 79.2354 55.9911C79.0978 56.2368 78.9477 56.424 78.7852 56.5644C78.6226 56.7048 78.4475 56.7985 78.2349 56.8453C78.0223 56.8921 77.7472 56.9389 77.4221 56.9623L77.4471 57.3718C77.7597 57.3718 78.0849 57.3718 78.4225 57.3601C78.7602 57.3484 79.0853 57.3484 79.3979 57.3484C79.7856 57.3484 80.1733 57.3484 80.561 57.3601C80.9486 57.3718 81.3113 57.3718 81.6239 57.3718L81.6615 56.9389C81.1237 56.9155 80.7485 56.8687 80.5485 56.7868C80.3359 56.7048 80.2358 56.5644 80.2358 56.3538C80.2358 56.2368 80.3234 55.9443 80.4859 55.4996L81.4739 53.1593H85.7258L86.6262 55.6868C86.6762 55.8272 86.7137 55.956 86.7512 56.073C86.7887 56.19 86.8012 56.2836 86.8012 56.3772C86.8012 56.5878 86.7012 56.7282 86.4886 56.7985L86.5011 56.7868ZM81.7615 52.4572L83.7624 47.7533H83.7999L85.4757 52.4572H81.7615ZM98.4064 56.0145C99.0192 56.5176 99.7445 56.9155 100.582 57.1963C101.42 57.4771 102.333 57.6175 103.334 57.6175C104.009 57.6175 104.697 57.5473 105.422 57.4186C106.147 57.2782 106.848 57.1261 107.536 56.9506C107.498 56.7282 107.473 56.4357 107.46 56.0847C107.448 55.7336 107.448 55.3709 107.448 54.9847V54.2242C107.448 53.9316 107.46 53.6859 107.498 53.5104C107.523 53.3231 107.586 53.171 107.673 53.0657C107.761 52.9604 107.886 52.8785 108.036 52.8317C108.186 52.7849 108.386 52.7498 108.636 52.7264L108.598 52.3168C108.473 52.3168 108.323 52.3168 108.161 52.3168C107.998 52.3168 107.823 52.3285 107.648 52.3285C107.473 52.3285 107.285 52.3285 107.098 52.3402C106.91 52.3402 106.735 52.3402 106.56 52.3402C106.372 52.3402 106.16 52.3402 105.935 52.3402C105.71 52.3402 105.472 52.3285 105.222 52.3285C104.984 52.3285 104.747 52.3285 104.497 52.3168C104.259 52.3168 104.034 52.3168 103.821 52.3168L103.796 52.7498C104.259 52.7615 104.647 52.7966 104.922 52.8317C105.209 52.8668 105.422 52.937 105.585 53.0189C105.735 53.1008 105.835 53.2061 105.897 53.3348C105.947 53.4636 105.972 53.6157 105.972 53.8146V56.1666C105.972 56.3187 105.86 56.4591 105.647 56.5527C105.435 56.658 105.172 56.7399 104.884 56.7985C104.597 56.857 104.309 56.9038 104.034 56.9272C103.759 56.9506 103.559 56.9623 103.446 56.9623C102.583 56.9623 101.82 56.8219 101.17 56.5293C100.52 56.2368 99.9821 55.8506 99.5569 55.3475C99.1318 54.856 98.8066 54.271 98.594 53.604C98.3814 52.937 98.2689 52.2232 98.2689 51.4626C98.2689 50.702 98.3689 50.0117 98.5815 49.3798C98.7941 48.7479 99.1067 48.2096 99.5319 47.765C99.9571 47.3203 100.495 46.9693 101.145 46.7236C101.795 46.4778 102.558 46.3491 103.434 46.3491C103.896 46.3491 104.347 46.4076 104.747 46.5129C105.159 46.6183 105.51 46.7938 105.822 47.0278C106.122 47.2618 106.372 47.5427 106.573 47.8937C106.76 48.2448 106.873 48.6543 106.91 49.1224L107.448 49.0756C107.448 48.5724 107.448 48.0926 107.46 47.648C107.46 47.2033 107.485 46.7236 107.548 46.2204C107.298 46.1619 107.01 46.0917 106.698 46.0449C106.385 45.9864 106.072 45.9396 105.747 45.8928C105.422 45.846 105.109 45.8109 104.797 45.7875C104.484 45.7641 104.197 45.7524 103.934 45.7524C102.896 45.7524 101.92 45.8811 101.02 46.1268C100.12 46.3725 99.3318 46.7587 98.6565 47.2618C97.9812 47.765 97.456 48.3969 97.0683 49.1575C96.6807 49.918 96.4931 50.7957 96.4931 51.8137C96.4931 52.6913 96.6682 53.487 97.0058 54.2124C97.3435 54.9262 97.8187 55.5464 98.4314 56.0496L98.4064 56.0145ZM116.877 46.6534C116.99 46.7353 117.065 46.8406 117.102 46.9693C117.14 47.098 117.152 47.2501 117.152 47.4491V55.4528C117.152 55.757 117.127 56.0028 117.09 56.19C117.052 56.3772 116.965 56.5176 116.852 56.6346C116.74 56.7399 116.577 56.8219 116.377 56.8687C116.177 56.9155 115.902 56.9623 115.577 56.9857L115.614 57.3952C115.727 57.3952 115.877 57.3952 116.052 57.3835C116.227 57.3835 116.414 57.3718 116.602 57.3718C116.802 57.3718 116.99 57.3718 117.19 57.3718C117.39 57.3718 117.565 57.3601 117.74 57.3601C117.94 57.3601 118.165 57.3601 118.39 57.3718C118.615 57.3718 118.841 57.3718 119.066 57.3718C119.291 57.3718 119.516 57.3718 119.716 57.3835C119.916 57.3835 120.091 57.3952 120.229 57.3952V56.9623C119.866 56.9506 119.591 56.9155 119.378 56.8804C119.166 56.8453 119.003 56.7751 118.891 56.6931C118.778 56.6112 118.703 56.5059 118.678 56.3772C118.64 56.2485 118.628 56.0964 118.628 55.8974V47.882C118.628 47.5895 118.653 47.3437 118.69 47.1682C118.728 46.981 118.816 46.8406 118.928 46.7236C119.053 46.6183 119.216 46.5364 119.416 46.4895C119.628 46.4427 119.891 46.3959 120.229 46.3725L120.179 45.963C120.054 45.963 119.916 45.963 119.741 45.9747C119.566 45.9747 119.378 45.9864 119.191 45.9864C118.991 45.9864 118.803 45.9864 118.59 45.9864C118.39 45.9864 118.215 45.9864 118.053 45.9864C117.853 45.9864 117.628 45.9864 117.39 45.9864C117.152 45.9864 116.927 45.9864 116.69 45.9864C116.464 45.9864 116.264 45.9864 116.064 45.9747C115.864 45.9747 115.702 45.963 115.564 45.963L115.539 46.3959C115.889 46.4076 116.164 46.4427 116.377 46.4778C116.59 46.5129 116.752 46.5832 116.865 46.6651L116.877 46.6534ZM139.55 49.1341C139.237 48.4203 138.812 47.8001 138.249 47.2969C137.699 46.7938 137.024 46.3959 136.248 46.1268C135.473 45.8577 134.61 45.7173 133.685 45.7173C132.734 45.7173 131.884 45.8694 131.109 46.1736C130.333 46.4778 129.67 46.8991 129.12 47.4374C128.57 47.9756 128.132 48.6192 127.832 49.3564C127.519 50.0936 127.369 50.9127 127.369 51.7903C127.369 52.6796 127.519 53.4753 127.832 54.2007C128.145 54.9145 128.582 55.5347 129.133 56.0379C129.695 56.541 130.358 56.9389 131.134 57.208C131.909 57.4771 132.759 57.6175 133.685 57.6175C134.635 57.6175 135.485 57.4654 136.261 57.1612C137.036 56.857 137.699 56.4357 138.249 55.8974C138.799 55.3592 139.237 54.7156 139.537 53.9784C139.837 53.2412 140 52.4221 140 51.5445C140 50.6552 139.85 49.8595 139.537 49.1341H139.55ZM137.887 54.2944C137.636 54.9262 137.311 55.4411 136.899 55.8389C136.486 56.2368 136.011 56.5176 135.473 56.7048C134.935 56.8804 134.372 56.974 133.785 56.974C133.234 56.974 132.697 56.8804 132.146 56.6931C131.596 56.5059 131.096 56.19 130.658 55.757C130.221 55.3124 129.858 54.739 129.57 54.0135C129.295 53.288 129.145 52.3987 129.145 51.3339C129.145 50.4329 129.27 49.6606 129.52 49.0287C129.77 48.3969 130.096 47.882 130.508 47.4842C130.921 47.0863 131.396 46.8055 131.934 46.6183C132.472 46.4427 133.034 46.3491 133.622 46.3491C134.172 46.3491 134.71 46.4427 135.26 46.63C135.811 46.8172 136.311 47.1331 136.749 47.5661C137.186 48.0107 137.549 48.5841 137.837 49.3096C138.112 50.0351 138.262 50.9244 138.262 51.9892C138.262 52.8902 138.137 53.6625 137.887 54.2944ZM8.17865 64.8022H131.846V64.4745H8.17865V64.8022ZM49.9598 3.47531C51.1103 4.78586 53.5864 8.5654 54.837 17.6925C55.1746 20.1498 55.3122 22.3964 55.3122 24.3974C55.3122 27.7908 54.937 30.4704 54.5619 32.3075C54.1867 34.1446 53.8115 35.1275 53.8115 35.1275L53.9116 35.1743C53.9116 35.1743 55.4372 33.4308 56.5753 31.7809C59.1014 28.1184 59.389 25.4973 59.389 25.4973V25.4856V25.4739C59.389 25.4739 58.7262 23.6134 58.0634 21.2614C57.4006 18.8977 56.7378 16.0426 56.7378 14.0416C56.7378 13.3045 56.8254 12.6843 57.038 12.2513C57.2506 11.8184 57.5632 11.5844 58.0384 11.5844C58.4136 11.5844 58.9013 11.7365 59.5141 12.0992C63.9786 14.6969 68.368 26.9834 69.1559 32.9979C69.1684 33.1149 69.1809 33.2202 69.1809 33.3255C69.1809 34.8116 67.7928 35.5371 67.7928 35.5371L67.7302 35.5722L67.7928 35.619C67.7928 35.619 68.4431 36.1572 68.9058 37.1753C69.2559 37.9241 69.6436 39.1996 69.7686 39.6325V39.7613H69.8062V39.773H69.8437H69.8812C69.8812 39.773 69.8812 39.773 69.8812 39.7613H69.9187V39.6325C70.0438 39.1996 70.4439 37.9241 70.7816 37.1753C71.2568 36.1572 71.8946 35.619 71.8946 35.619L71.9571 35.5722L71.8946 35.5371C71.8946 35.5371 70.494 34.8116 70.5065 33.3255C70.5065 33.2202 70.519 33.1149 70.5315 32.9979C71.3068 26.9717 75.7088 14.6969 80.1733 12.0992C80.7861 11.7365 81.2738 11.5844 81.6489 11.5844C82.1242 11.5844 82.4368 11.8184 82.6494 12.2513C82.862 12.6843 82.9495 13.2928 82.9495 14.0416C82.9495 16.0426 82.2867 18.8977 81.6239 21.2614C80.9611 23.6251 80.2983 25.4739 80.2983 25.4739V25.4856V25.4973C80.2983 25.509 80.586 28.1184 83.1121 31.7809C84.2501 33.4425 85.7758 35.1743 85.7758 35.1743L85.8758 35.1275C85.8758 35.1275 85.5007 34.1446 85.1255 32.3075C84.7503 30.4704 84.3752 27.7908 84.3752 24.3974C84.3752 22.3964 84.5002 20.1498 84.8504 17.6925C85.6883 11.6078 87.0639 7.89843 88.2394 5.71027C88.8272 4.62204 89.3524 3.90826 89.7401 3.46361C90.1277 3.03065 90.3528 2.86684 90.3528 2.86684L90.3028 2.77322C90.3028 2.77322 86.8012 3.67423 81.6114 6.28364C78.9227 7.641 75.6963 10.578 75.3962 10.8472C75.2336 10.8121 74.3457 10.5897 73.3828 10.1685C72.3198 9.70044 71.1693 8.96325 70.8316 7.95693C70.4064 6.72829 70.2939 5.87409 70.2939 5.31242C70.2939 4.97308 70.3314 4.73906 70.3689 4.58694C70.4064 4.43482 70.4439 4.37631 70.4439 4.37631L71.3819 1.7435L71.3569 1.7201C70.4565 0.959512 70.0563 0.327638 69.9312 0.093611V0.0234027L69.8937 0.0117014C69.8937 0 69.8812 0 69.8812 0H69.8562H69.8312C69.8312 0 69.8312 0 69.8312 0.0117014L69.7937 0.0234027V0.093611C69.6686 0.315937 69.2684 0.959512 68.368 1.7084L68.343 1.7318L69.2809 4.35291C69.2809 4.36461 69.3184 4.42312 69.3685 4.56353C69.406 4.71565 69.4435 4.94968 69.4435 5.28902C69.4435 5.85069 69.3309 6.70489 68.9058 7.93353C68.5556 8.95155 67.4176 9.67703 66.3546 10.1451C65.3917 10.5663 64.5163 10.777 64.3412 10.8238C64.0411 10.5546 60.8272 7.61759 58.1259 6.26023C52.9361 3.65083 49.4471 2.74982 49.4346 2.74982L49.3845 2.84343C49.3845 2.84343 49.6222 3.00725 49.9973 3.4402L49.9598 3.47531ZM69.8187 9.22068C70.0813 9.54832 71.1067 10.8823 71.0942 11.7716C71.0942 11.8067 71.0942 11.8418 71.0942 11.8769C71.0192 12.7428 69.9937 12.9534 69.8187 12.9768C69.6436 12.9417 68.6181 12.7428 68.5431 11.8769C68.5431 11.8418 68.5431 11.8067 68.5431 11.7716C68.5431 10.8706 69.5561 9.54832 69.8312 9.22068H69.8187ZM67.7052 13.5736C68.8557 13.7725 69.5185 13.7959 69.7436 13.7959C69.7812 13.7959 69.8062 13.7959 69.8187 13.7959C69.8312 13.7959 69.8562 13.7959 69.8937 13.7959C70.1313 13.7959 70.7941 13.7725 71.9321 13.5736C72.9201 13.3981 73.6079 13.1406 73.908 13.0119C71.3068 17.6106 70.1063 25.0526 69.8187 27.1238C69.5185 25.0292 68.3305 17.5989 65.7293 13.0119C66.017 13.1406 66.7173 13.3981 67.7052 13.5736ZM16.1197 75.743C16.0071 75.9302 15.8696 76.094 15.707 76.2227C15.5444 76.3631 15.3443 76.4568 15.1318 76.527C14.9192 76.5855 14.6941 76.6206 14.4565 76.6206C14.0188 76.6206 13.6436 76.5504 13.331 76.3982C13.0183 76.2461 12.7432 76.0472 12.5306 75.7898C12.318 75.5323 12.1554 75.2398 12.0554 74.8888C11.9553 74.5494 11.8928 74.175 11.8928 73.7771C11.8928 73.3793 11.9553 73.0283 12.0679 72.7006C12.1804 72.373 12.3555 72.1038 12.5806 71.8698C12.8057 71.6358 13.0808 71.4603 13.4185 71.3316C13.7561 71.2028 14.1313 71.1326 14.569 71.1326C14.7941 71.1326 14.9942 71.156 15.1818 71.2145C15.3694 71.273 15.5319 71.355 15.682 71.472C15.8196 71.589 15.9321 71.7294 16.0197 71.9166C16.1072 72.0921 16.1572 72.3028 16.1697 72.5485L16.4448 72.5251C16.4448 72.2677 16.4448 72.0102 16.4573 71.7762C16.4699 71.5422 16.4824 71.2964 16.5074 71.0273C16.2448 70.9571 15.9571 70.9103 15.657 70.8752C15.3569 70.8401 15.0692 70.8167 14.8066 70.8167C14.2939 70.8167 13.8062 70.8869 13.3435 71.0156C12.8807 71.1443 12.4681 71.3433 12.1179 71.6007C11.7678 71.8581 11.4926 72.1858 11.28 72.5836C11.0799 72.9697 10.9674 73.4261 10.9674 73.9527C10.9674 74.409 11.0549 74.8186 11.2175 75.193C11.3926 75.5675 11.6302 75.8834 11.9303 76.1408C12.2305 76.3982 12.5931 76.6089 13.0058 76.7493C13.4185 76.8897 13.8812 76.9599 14.3689 76.9599C14.7066 76.9599 15.0442 76.9365 15.3819 76.878C15.7195 76.8195 16.0572 76.7493 16.4073 76.6557C16.4323 76.3866 16.4699 76.1291 16.5199 75.8951C16.5699 75.6611 16.6199 75.4036 16.695 75.1345L16.4323 75.076C16.3198 75.3334 16.2072 75.5557 16.0947 75.743H16.1197ZM25.1487 70.9571C24.9361 70.9688 24.736 70.9688 24.5485 70.9688C24.3109 70.9688 24.0858 70.9688 23.8732 70.9571C23.6606 70.9571 23.473 70.9571 23.3229 70.9571L23.3104 71.1794C23.523 71.1911 23.6981 71.2145 23.8356 71.2379C23.9732 71.2613 24.0732 71.3082 24.1483 71.3667C24.2233 71.4252 24.2733 71.5188 24.3109 71.6241C24.3359 71.7294 24.3484 71.8815 24.3484 72.057V74.6313C24.3484 74.959 24.2983 75.2398 24.1983 75.4855C24.0983 75.7196 23.9732 75.9068 23.7981 76.0589C23.6356 76.211 23.448 76.3163 23.2229 76.3866C23.0103 76.4568 22.7852 76.4919 22.5476 76.4919C22.31 76.4919 22.0974 76.4568 21.8723 76.3982C21.6597 76.3397 21.4596 76.2344 21.2845 76.1057C21.1094 75.977 20.9719 75.8015 20.8718 75.5909C20.7718 75.3802 20.7092 75.1228 20.7092 74.8303V71.9985C20.7092 71.8464 20.7218 71.7177 20.7468 71.6241C20.7718 71.5188 20.8218 71.4486 20.8843 71.3784C20.9468 71.3199 21.0469 71.273 21.1594 71.2379C21.272 71.2145 21.4346 71.1911 21.6222 71.1794L21.5971 70.9688C21.5221 70.9688 21.4346 70.9688 21.3345 70.9688C21.2345 70.9688 21.1344 70.9688 21.0219 70.9688C20.9093 70.9688 20.8093 70.9688 20.6967 70.9688C20.5842 70.9688 20.4967 70.9688 20.4091 70.9688C20.2966 70.9688 20.184 70.9688 20.059 70.9688C19.9339 70.9688 19.8088 70.9688 19.6838 70.9688C19.5712 70.9688 19.4587 70.9688 19.3461 70.9688C19.2336 70.9688 19.146 70.9688 19.071 70.9688L19.0585 71.1911C19.2586 71.2028 19.4087 71.2145 19.5337 71.2379C19.6463 71.2613 19.7463 71.2964 19.8088 71.3433C19.8714 71.3901 19.9089 71.4486 19.9339 71.5188C19.9589 71.589 19.9589 71.6709 19.9589 71.7645V75.0409C19.9589 75.3685 20.0214 75.6494 20.1465 75.8951C20.2715 76.1408 20.4466 76.3397 20.6592 76.4919C20.8718 76.6557 21.1094 76.7727 21.3845 76.8429C21.6597 76.9248 21.9473 76.9599 22.2474 76.9599C22.5476 76.9599 22.8477 76.9248 23.1478 76.8429C23.448 76.761 23.7106 76.6323 23.9357 76.4568C24.1733 76.2812 24.3609 76.0472 24.4984 75.7781C24.6485 75.4972 24.711 75.1579 24.711 74.7601V72.1741C24.711 71.9517 24.7235 71.7762 24.7485 71.6475C24.7736 71.5188 24.8236 71.4252 24.8986 71.355C24.9736 71.2848 25.0612 71.2496 25.1862 71.2262C25.3113 71.2028 25.4614 71.1794 25.649 71.1677L25.6364 70.9571C25.4989 70.9571 25.3238 70.9571 25.1112 70.9688L25.1487 70.9571ZM31.1139 74.0814C30.9513 73.941 30.7512 73.8239 30.5386 73.7186C30.326 73.6133 30.1134 73.5197 29.9008 73.4378C29.7258 73.3676 29.5632 73.2974 29.4131 73.2272C29.2631 73.157 29.1255 73.0751 29.0004 72.9697C28.8879 72.8761 28.7879 72.7591 28.7253 72.6187C28.6628 72.49 28.6253 72.3262 28.6253 72.1273C28.6253 71.9751 28.6503 71.8464 28.7128 71.7294C28.7628 71.6124 28.8379 71.5071 28.9379 71.4252C29.038 71.3433 29.1505 71.273 29.2756 71.2262C29.4006 71.1794 29.5507 71.156 29.7133 71.156C30.1259 71.156 30.4511 71.2613 30.6887 71.472C30.9263 71.6826 31.0764 72.0102 31.1139 72.4432L31.389 72.4198C31.389 72.2911 31.389 72.1624 31.389 72.057C31.389 71.94 31.389 71.8347 31.4015 71.7294C31.4015 71.6241 31.414 71.5071 31.414 71.4018C31.4265 71.2848 31.439 71.1677 31.4515 71.039C31.1889 70.9688 30.9388 70.922 30.7012 70.8869C30.4636 70.8518 30.2135 70.8284 29.9384 70.8284C29.6507 70.8284 29.3881 70.8635 29.138 70.9337C28.8879 71.0039 28.6628 71.1092 28.4752 71.2379C28.2876 71.3784 28.1376 71.5422 28.025 71.7411C27.9125 71.94 27.8624 72.1624 27.8624 72.4198C27.8624 72.6655 27.9125 72.8644 28.0125 73.04C28.1125 73.2155 28.2376 73.3676 28.4002 73.508C28.5627 73.6484 28.7378 73.7654 28.9379 73.8591C29.138 73.9527 29.3381 74.0463 29.5257 74.1282C29.7008 74.1984 29.8758 74.2803 30.0384 74.3505C30.201 74.4324 30.351 74.5143 30.4886 74.6196C30.6137 74.725 30.7262 74.842 30.8013 74.9941C30.8763 75.1345 30.9138 75.31 30.9138 75.5089C30.9138 75.6728 30.8888 75.8132 30.8263 75.9419C30.7637 76.0706 30.6762 76.1876 30.5761 76.2929C30.4636 76.3866 30.3385 76.4685 30.201 76.5153C30.0509 76.5621 29.9008 76.5972 29.7258 76.5972C29.4632 76.5972 29.2506 76.5621 29.063 76.4802C28.8754 76.41 28.7253 76.3046 28.5878 76.1642C28.4502 76.0355 28.3377 75.8717 28.2376 75.6962C28.1376 75.5206 28.05 75.3217 27.9625 75.1111L27.6874 75.1696C27.7624 75.4387 27.8249 75.6962 27.8624 75.9302C27.9 76.1642 27.9375 76.4217 27.975 76.6908C28.2626 76.7727 28.5377 76.8312 28.7879 76.878C29.0505 76.9248 29.2881 76.9482 29.5382 76.9482C29.8133 76.9482 30.0759 76.9131 30.3385 76.8312C30.6012 76.7493 30.8263 76.644 31.0389 76.4919C31.2389 76.3397 31.4015 76.1642 31.5266 75.9419C31.6516 75.7313 31.7142 75.4855 31.7142 75.2047C31.7142 74.959 31.6641 74.7367 31.5516 74.5611C31.4515 74.3739 31.314 74.2218 31.1389 74.0814H31.1139ZM37.7544 70.9571C37.5167 70.9571 37.2791 70.9571 37.054 70.9571C36.8164 70.9571 36.6289 70.9571 36.4788 70.9571C36.3287 70.9571 36.1661 70.9571 35.9786 70.9571C35.8035 70.9571 35.5909 70.9571 35.3533 70.9571C35.1157 70.9571 34.8781 70.9571 34.6155 70.9571C34.3653 70.9571 34.1027 70.9571 33.8401 70.9571C33.8651 71.1794 33.8776 71.3667 33.8776 71.5305C33.8901 71.6943 33.8901 71.8698 33.8901 72.057V72.4432L34.1402 72.4549C34.1778 72.2326 34.2278 72.0453 34.2653 71.8932C34.3153 71.7411 34.3778 71.6241 34.4779 71.5188C34.5654 71.4252 34.6905 71.355 34.8406 71.3082C34.9906 71.273 35.1907 71.2496 35.4283 71.2496H36.1536V75.8366C36.1536 75.9887 36.1411 76.1174 36.1286 76.211C36.1036 76.3046 36.0661 76.3866 36.0036 76.4451C35.941 76.5036 35.8535 76.5387 35.7285 76.5621C35.6034 76.5855 35.4408 76.6089 35.2407 76.6206L35.2657 76.8312C35.3533 76.8312 35.4408 76.8312 35.5534 76.8312C35.6534 76.8312 35.766 76.8312 35.866 76.8312C35.9661 76.8312 36.0786 76.8312 36.1786 76.8312C36.2787 76.8312 36.3787 76.8312 36.4663 76.8312C36.5663 76.8312 36.6789 76.8312 36.8039 76.8312C36.929 76.8312 37.0415 76.8312 37.1666 76.8312C37.2916 76.8312 37.4042 76.8312 37.5293 76.8312C37.6418 76.8312 37.7544 76.8312 37.8419 76.8312L37.8544 76.6089C37.6418 76.5972 37.4667 76.5855 37.3417 76.5621C37.2166 76.5387 37.1291 76.5153 37.0665 76.4685C37.004 76.4217 36.9665 76.3748 36.954 76.3046C36.9415 76.2344 36.929 76.1525 36.929 76.0589V71.2496H37.6793C37.9294 71.2496 38.117 71.273 38.2671 71.3082C38.4171 71.3433 38.5297 71.4135 38.6172 71.5188C38.7048 71.6124 38.7673 71.7411 38.8173 71.8932C38.8674 72.0453 38.9049 72.2326 38.9424 72.4549L39.1925 72.4432C39.1925 72.3028 39.1925 72.1741 39.1925 72.057C39.1925 71.94 39.205 71.823 39.205 71.706C39.2175 71.589 39.2175 71.472 39.23 71.355C39.2425 71.2379 39.255 71.0975 39.2675 70.9571C39.0049 70.9571 38.7423 70.9571 38.4922 70.9571C38.2296 70.9571 37.992 70.9571 37.7418 70.9571H37.7544ZM47.1335 71.6475C46.8459 71.3901 46.5083 71.1794 46.1081 71.039C45.7079 70.8986 45.2702 70.8284 44.795 70.8284C44.3073 70.8284 43.8696 70.9103 43.4694 71.0624C43.0692 71.2145 42.7316 71.4369 42.4439 71.706C42.1563 71.9868 41.9437 72.3145 41.7812 72.7006C41.6186 73.0868 41.5435 73.4963 41.5435 73.9527C41.5435 74.409 41.6186 74.8186 41.7812 75.193C41.9437 75.5675 42.1688 75.8717 42.4439 76.1408C42.7316 76.3982 43.0692 76.6089 43.4694 76.7493C43.8696 76.8897 44.3073 76.9599 44.7825 76.9599C45.2702 76.9599 45.7079 76.878 46.1081 76.7259C46.5083 76.5738 46.8459 76.3514 47.1335 76.0706C47.4212 75.7898 47.6338 75.4621 47.7963 75.076C47.9589 74.6898 48.0339 74.2803 48.0339 73.8239C48.0339 73.3676 47.9589 72.958 47.7963 72.5836C47.6338 72.2092 47.4212 71.8932 47.1335 71.6358V71.6475ZM46.946 75.2515C46.8209 75.5792 46.6458 75.8366 46.4332 76.0472C46.2206 76.2461 45.983 76.3982 45.6954 76.4919C45.4203 76.5855 45.1326 76.6323 44.8325 76.6323C44.5574 76.6323 44.2698 76.5855 43.9946 76.4919C43.7195 76.3982 43.4569 76.2344 43.2318 76.0121C43.0067 75.7898 42.8191 75.4855 42.669 75.1111C42.519 74.7367 42.4565 74.2803 42.4565 73.7303C42.4565 73.2623 42.519 72.8644 42.644 72.5485C42.7691 72.2209 42.9442 71.9634 43.1568 71.7528C43.3694 71.5539 43.607 71.4018 43.8946 71.3082C44.1697 71.2145 44.4573 71.1677 44.7575 71.1677C45.0326 71.1677 45.3202 71.2145 45.5954 71.3082C45.883 71.4018 46.1331 71.5656 46.3582 71.7879C46.5833 72.0102 46.7709 72.3145 46.9209 72.6889C47.071 73.0634 47.1335 73.5197 47.1335 74.0697C47.1335 74.5377 47.071 74.9356 46.946 75.2515ZM57.6132 76.4802C57.5507 76.4333 57.5007 76.3866 57.4757 76.3163C57.4506 76.2461 57.4381 76.1642 57.4381 76.0706L57.3006 71.9517C57.3006 71.7996 57.3006 71.6709 57.3256 71.5773C57.3381 71.4837 57.3881 71.4018 57.4381 71.3433C57.5007 71.2848 57.5882 71.2496 57.7008 71.2262C57.8133 71.2028 57.9759 71.1794 58.1635 71.1677L58.151 70.9571C58.0884 70.9571 57.9884 70.9571 57.8383 70.9571C57.6883 70.9571 57.5382 70.9571 57.3756 70.9571C57.213 70.9571 57.0505 70.9571 56.9004 70.9571C56.7503 70.9571 56.6253 70.9571 56.5377 70.9571C56.4627 71.1209 56.4002 71.273 56.3251 71.4369C56.2501 71.6007 56.1876 71.7528 56.1125 71.9166L54.2992 75.86H54.2742L52.4234 71.9985C52.3359 71.823 52.2608 71.6475 52.1733 71.4837C52.0983 71.3082 52.0107 71.1326 51.9357 70.9571C51.8231 70.9571 51.6731 70.9571 51.5105 70.9571C51.3479 70.9571 51.1853 70.9571 51.0353 70.9571C50.8727 70.9571 50.7351 70.9571 50.6101 70.9571C50.485 70.9571 50.385 70.9571 50.335 70.9571L50.3225 71.1794C50.485 71.1911 50.6351 71.2028 50.7602 71.2379C50.8852 71.2613 50.9978 71.3199 51.0728 71.4018C51.1228 71.4486 51.1603 71.4954 51.1853 71.5539C51.2104 71.6124 51.2354 71.6709 51.2604 71.7411C51.2729 71.8113 51.2854 71.9049 51.2979 72.0102C51.2979 72.1155 51.2979 72.2443 51.2979 72.3847L51.1603 75.5557C51.1478 75.8015 51.1353 75.9887 51.1103 76.1291C51.0853 76.2695 51.0353 76.3748 50.9728 76.4451C50.9102 76.5153 50.8227 76.5621 50.7101 76.5855C50.5976 76.6089 50.4475 76.6323 50.2724 76.644L50.2975 76.8546C50.4475 76.8546 50.6226 76.8546 50.7977 76.8546C50.9728 76.8546 51.1478 76.8429 51.3229 76.8429C51.5355 76.8429 51.7231 76.8429 51.8857 76.8546C52.0482 76.8546 52.1983 76.8546 52.3359 76.8546L52.3484 76.6323C52.1858 76.6206 52.0482 76.6089 51.9482 76.5855C51.8481 76.5621 51.7606 76.527 51.7106 76.4802C51.6481 76.4217 51.623 76.3397 51.598 76.2344C51.5855 76.1291 51.573 75.977 51.5855 75.7781L51.7106 72.2443L51.7356 72.2326C52.1233 73.0283 52.4984 73.8122 52.8736 74.5728C53.2488 75.3334 53.6239 76.1174 53.9866 76.9365L54.2992 76.9014C54.6744 76.0589 55.0371 75.2281 55.4122 74.4207C55.7874 73.6016 56.1626 72.7825 56.5502 71.9517L56.5753 71.9751L56.6878 75.86C56.6878 76.0121 56.6878 76.1408 56.6753 76.2344C56.6628 76.328 56.6378 76.41 56.5878 76.4685C56.5377 76.527 56.4627 76.5738 56.3752 76.5972C56.2751 76.6206 56.1501 76.644 56 76.6557L56.025 76.8663C56.0875 76.8663 56.1626 76.8663 56.2376 76.8663C56.3251 76.8663 56.4127 76.8663 56.5002 76.8663C56.5878 76.8663 56.6878 76.8663 56.7753 76.8663C56.8629 76.8663 56.9629 76.8663 57.0505 76.8663C57.1505 76.8663 57.2631 76.8663 57.3881 76.8663C57.5007 76.8663 57.6257 76.8663 57.7383 76.8663C57.8508 76.8663 57.9634 76.8663 58.0759 76.8663C58.176 76.8663 58.276 76.8663 58.351 76.8663L58.3636 76.644C58.176 76.6323 58.0134 76.6206 57.9008 76.5972C57.7883 76.5738 57.7008 76.5504 57.6382 76.5036L57.6132 76.4802ZM69.1309 70.9688C68.8933 70.9688 68.6556 70.9688 68.4305 70.9688C68.1929 70.9688 68.0054 70.9688 67.8553 70.9688C67.7052 70.9688 67.5426 70.9688 67.3551 70.9688C67.18 70.9688 66.9674 70.9688 66.7298 70.9688C66.4922 70.9688 66.2546 70.9688 65.992 70.9688C65.7418 70.9688 65.4792 70.9688 65.2166 70.9688C65.2416 71.1911 65.2541 71.3784 65.2541 71.5422C65.2666 71.706 65.2666 71.8815 65.2666 72.0687V72.4549L65.5167 72.4666C65.5543 72.2443 65.6043 72.057 65.6418 71.9049C65.6918 71.7528 65.7544 71.6358 65.8544 71.5305C65.9419 71.4369 66.067 71.3667 66.2171 71.3199C66.3671 71.2848 66.5672 71.2613 66.8048 71.2613H67.5301V75.8483C67.5301 76.0004 67.5176 76.1291 67.5051 76.2227C67.4801 76.3163 67.4426 76.3982 67.3801 76.4568C67.3176 76.5153 67.23 76.5504 67.105 76.5738C66.9799 76.5972 66.8173 76.6206 66.6172 76.6323L66.6423 76.8429C66.7298 76.8429 66.8173 76.8429 66.9299 76.8429C67.0299 76.8429 67.1425 76.8429 67.2425 76.8429C67.3426 76.8429 67.4551 76.8429 67.5552 76.8429C67.6552 76.8429 67.7552 76.8429 67.8428 76.8429C67.9428 76.8429 68.0554 76.8429 68.1804 76.8429C68.3055 76.8429 68.418 76.8429 68.5431 76.8429C68.6682 76.8429 68.7807 76.8429 68.9058 76.8429C69.0183 76.8429 69.1309 76.8429 69.2184 76.8429L69.2309 76.6206C69.0183 76.6089 68.8432 76.5972 68.7182 76.5738C68.5931 76.5504 68.5056 76.527 68.4431 76.4802C68.3805 76.4333 68.343 76.3866 68.3305 76.3163C68.318 76.2461 68.3055 76.1642 68.3055 76.0706V71.2613H69.0558C69.3059 71.2613 69.4935 71.2848 69.6436 71.3199C69.7937 71.355 69.9062 71.4252 69.9937 71.5305C70.0813 71.6241 70.1438 71.7528 70.1938 71.9049C70.2439 72.057 70.2814 72.2443 70.3189 72.4666L70.569 72.4549C70.569 72.3145 70.569 72.1858 70.569 72.0687C70.569 71.9517 70.5815 71.8347 70.5815 71.7177C70.594 71.6007 70.594 71.4837 70.6065 71.3667C70.619 71.2496 70.6315 71.1092 70.644 70.9688C70.3814 70.9688 70.1188 70.9688 69.8687 70.9688C69.6061 70.9688 69.3685 70.9688 69.1184 70.9688H69.1309ZM78.1599 76.4568C78.0849 76.3982 78.0348 76.328 77.9723 76.2227C77.9223 76.1174 77.8598 75.977 77.7972 75.8015L76.3216 71.8113C76.2715 71.6709 76.2215 71.5305 76.1715 71.3667C76.1215 71.2028 76.0715 71.0273 76.0214 70.8284L75.6087 70.8752C75.5587 70.9805 75.5087 71.0858 75.4587 71.1677C75.3962 71.2613 75.3461 71.3667 75.2961 71.4837L73.4828 75.626C73.3828 75.8366 73.3077 76.0004 73.2327 76.1291C73.1577 76.2578 73.0826 76.3514 73.0076 76.4217C72.9326 76.4919 72.8325 76.5387 72.72 76.5738C72.6074 76.5972 72.4698 76.6206 72.2948 76.6323L72.3073 76.8429C72.4698 76.8429 72.6324 76.8429 72.8075 76.8312C72.9826 76.8312 73.1451 76.8195 73.3077 76.8195C73.5078 76.8195 73.7079 76.8195 73.908 76.8312C74.1081 76.8312 74.2957 76.8429 74.4457 76.8429L74.4707 76.6206C74.1956 76.6089 74.008 76.5855 73.8955 76.5387C73.7829 76.4919 73.7329 76.4217 73.7329 76.3163C73.7329 76.2578 73.7829 76.1057 73.858 75.8717L74.3582 74.6664H76.5342L76.9969 75.9653C77.0219 76.0355 77.0469 76.1057 77.0594 76.1642C77.0719 76.2227 77.0844 76.2695 77.0844 76.3163C77.0844 76.4217 77.0344 76.4919 76.9218 76.5387C76.8218 76.5738 76.6467 76.6089 76.3966 76.6206L76.4216 76.8312C76.6092 76.8312 76.7843 76.8312 76.9844 76.8195C77.172 76.8195 77.3595 76.8078 77.5346 76.8078C77.7597 76.8078 77.9848 76.8078 78.1974 76.8195C78.4225 76.8195 78.6226 76.8312 78.7977 76.8312L78.8227 76.6089C78.6476 76.5972 78.51 76.5855 78.41 76.5621C78.2975 76.5387 78.2099 76.5036 78.1474 76.4451L78.1599 76.4568ZM74.5083 74.3154L75.5337 71.8932H75.5587L76.4216 74.3154H74.5208H74.5083ZM82.4493 71.5773C82.4743 71.4837 82.5118 71.4018 82.5744 71.355C82.6369 71.2964 82.7244 71.2613 82.8245 71.2379C82.937 71.2145 83.0746 71.1911 83.2372 71.1794L83.2121 70.9688C83.1496 70.9688 83.0746 70.9688 82.987 70.9688C82.8995 70.9688 82.7995 70.9688 82.6994 70.9688C82.5994 70.9688 82.4993 70.9688 82.3993 70.9688C82.2992 70.9688 82.1992 70.9688 82.1242 70.9688C82.0241 70.9688 81.9116 70.9688 81.7865 70.9688C81.6615 70.9688 81.5489 70.9688 81.4239 70.9688C81.3113 70.9688 81.1987 70.9688 81.0987 70.9688C80.9987 70.9688 80.9111 70.9688 80.8486 70.9688L80.8361 71.1911C81.0112 71.2028 81.1612 71.2145 81.2738 71.2379C81.3863 71.2613 81.4614 71.2848 81.5239 71.3316C81.5864 71.3784 81.6239 71.4252 81.6364 71.4954C81.6489 71.5656 81.6615 71.6475 81.6615 71.7411V75.86C81.6615 76.0121 81.6489 76.1408 81.6239 76.2344C81.5989 76.328 81.5614 76.41 81.4989 76.4568C81.4364 76.5153 81.3613 76.5504 81.2488 76.5738C81.1487 76.5972 81.0112 76.6206 80.8361 76.6323L80.8611 76.8429C80.9236 76.8429 80.9987 76.8429 81.0862 76.8429C81.1737 76.8429 81.2738 76.8429 81.3738 76.8429C81.4739 76.8429 81.5739 76.8429 81.674 76.8429C81.774 76.8429 81.874 76.8429 81.9616 76.8429C82.0616 76.8429 82.1742 76.8429 82.2992 76.8429C82.4118 76.8429 82.5368 76.8429 82.6494 76.8429C82.7619 76.8429 82.8745 76.8429 82.987 76.8429C83.0871 76.8429 83.1746 76.8429 83.2497 76.8429V76.6206C83.0621 76.6089 82.9245 76.5972 82.812 76.5738C82.6994 76.5504 82.6244 76.527 82.5619 76.4802C82.4993 76.4333 82.4618 76.3866 82.4493 76.3163C82.4368 76.2461 82.4243 76.1642 82.4243 76.0706V71.94C82.4243 71.7879 82.4368 71.6709 82.4618 71.5656L82.4493 71.5773ZM89.7401 75.9185C89.6525 76.0706 89.565 76.1876 89.4524 76.2812C89.3399 76.3748 89.2023 76.4333 89.0397 76.4802C88.8772 76.5153 88.6646 76.5387 88.4145 76.5387H88.0768C87.9017 76.5387 87.7517 76.527 87.6516 76.5036C87.5391 76.4802 87.464 76.4451 87.4015 76.3982C87.339 76.3514 87.3015 76.2812 87.289 76.1876C87.264 76.094 87.264 75.9887 87.264 75.8483V71.9634C87.264 71.8113 87.2765 71.6826 87.3015 71.589C87.3265 71.4954 87.364 71.4135 87.4265 71.355C87.4891 71.2964 87.5766 71.2613 87.6891 71.2379C87.8017 71.2145 87.9518 71.1911 88.1268 71.1794L88.1018 70.9688C88.0393 70.9688 87.9643 70.9688 87.8767 70.9688C87.7892 70.9688 87.6891 70.9688 87.5766 70.9688C87.4765 70.9688 87.364 70.9688 87.264 70.9688C87.1639 70.9688 87.0639 70.9688 86.9763 70.9688C86.8763 70.9688 86.7637 70.9688 86.6387 70.9688C86.5136 70.9688 86.4011 70.9688 86.276 70.9688C86.1635 70.9688 86.0509 70.9688 85.9509 70.9688C85.8508 70.9688 85.7633 70.9688 85.6883 70.9688L85.6632 71.1911C85.8508 71.2028 86.0009 71.2145 86.1134 71.2379C86.226 71.2613 86.3135 71.2848 86.3636 71.3316C86.4261 71.3784 86.4636 71.4252 86.4761 71.4954C86.5011 71.5656 86.5011 71.6475 86.5011 71.7411V75.86C86.5011 76.0121 86.4886 76.1408 86.4636 76.2344C86.4386 76.328 86.4011 76.41 86.3385 76.4568C86.276 76.5153 86.1885 76.5504 86.0759 76.5738C85.9634 76.5972 85.8258 76.6206 85.6382 76.6323L85.6632 76.8429C85.7258 76.8429 85.8008 76.8429 85.9008 76.8429C86.0009 76.8429 86.0884 76.8429 86.201 76.8429C86.301 76.8429 86.4136 76.8429 86.5136 76.8429C86.6137 76.8429 86.7137 76.8429 86.8012 76.8429H87.0264C87.1139 76.8429 87.2014 76.8429 87.314 76.8429C87.4265 76.8429 87.5516 76.8429 87.7017 76.8429C87.8517 76.8429 88.0268 76.8429 88.2394 76.8429C88.452 76.8429 88.7021 76.8429 88.9897 76.8429H89.9902C89.9902 76.7727 90.0027 76.6791 90.0277 76.5621C90.0402 76.4451 90.0652 76.328 90.0902 76.1993C90.1152 76.0706 90.1402 75.9419 90.1778 75.8015C90.2028 75.6611 90.2403 75.5441 90.2778 75.427L90.0277 75.3685C89.9276 75.5909 89.8401 75.7781 89.7526 75.9302L89.7401 75.9185ZM98.0563 71.6592C97.7686 71.4018 97.431 71.1911 97.0308 71.0507C96.6306 70.9103 96.1929 70.8401 95.7177 70.8401C95.23 70.8401 94.7923 70.922 94.3921 71.0741C93.992 71.2262 93.6543 71.4486 93.3667 71.7177C93.079 71.9985 92.8665 72.3262 92.7039 72.7123C92.5413 73.0985 92.4663 73.508 92.4663 73.9644C92.4663 74.4207 92.5413 74.8303 92.7039 75.2047C92.8665 75.5792 93.079 75.8834 93.3667 76.1525C93.6543 76.41 93.992 76.6206 94.3921 76.761C94.7923 76.9014 95.23 76.9716 95.7052 76.9716C96.1929 76.9716 96.6306 76.8897 97.0308 76.7376C97.431 76.5855 97.7686 76.3631 98.0563 76.0823C98.3439 75.8015 98.5565 75.4738 98.7191 75.0877C98.8816 74.7016 98.9567 74.292 98.9567 73.8356C98.9567 73.3793 98.8816 72.9697 98.7191 72.5953C98.5565 72.2209 98.3439 71.9049 98.0563 71.6475V71.6592ZM97.8687 75.2632C97.7436 75.5909 97.5686 75.8483 97.356 76.0589C97.1434 76.2578 96.9058 76.41 96.6181 76.5036C96.343 76.5972 96.0554 76.644 95.7552 76.644C95.4801 76.644 95.1925 76.5972 94.9174 76.5036C94.6297 76.41 94.3796 76.2461 94.1545 76.0238C93.9294 75.8015 93.7418 75.4972 93.6043 75.1228C93.4542 74.7484 93.3917 74.292 93.3917 73.742C93.3917 73.274 93.4542 72.8761 93.5793 72.5602C93.7043 72.2326 93.8794 71.9751 94.092 71.7645C94.3046 71.5656 94.5422 71.4135 94.8298 71.3199C95.105 71.2262 95.3926 71.1794 95.6927 71.1794C95.9678 71.1794 96.2555 71.2262 96.5306 71.3199C96.8182 71.4135 97.0683 71.5773 97.2934 71.7996C97.5185 72.0219 97.7061 72.3262 97.8437 72.7006C97.9937 73.0751 98.0563 73.5314 98.0563 74.0814C98.0563 74.5494 97.9937 74.9473 97.8687 75.2632ZM106.423 76.5036C106.347 76.4685 106.285 76.4217 106.222 76.3514C106.16 76.2929 106.085 76.1993 106.01 76.094C105.947 76.0121 105.872 75.8951 105.772 75.7547C105.672 75.6143 105.572 75.4504 105.46 75.2515C105.347 75.0643 105.222 74.8537 105.084 74.6196C104.947 74.3856 104.809 74.1516 104.672 73.9059C104.859 73.8356 105.034 73.7537 105.184 73.6484C105.335 73.5431 105.472 73.4261 105.585 73.2857C105.697 73.1453 105.785 72.9931 105.847 72.8293C105.91 72.6655 105.947 72.49 105.947 72.2911C105.947 72.0102 105.885 71.7762 105.747 71.6007C105.622 71.4135 105.447 71.273 105.234 71.1677C105.022 71.0624 104.784 70.9922 104.522 70.9454C104.259 70.8986 103.996 70.8869 103.734 70.8869C103.546 70.8869 103.371 70.8986 103.196 70.922C103.021 70.9454 102.846 70.9571 102.671 70.9571C102.571 70.9571 102.458 70.9571 102.346 70.9571C102.233 70.9571 102.121 70.9571 102.008 70.9571C101.895 70.9571 101.795 70.9571 101.708 70.9571C101.62 70.9571 101.533 70.9571 101.458 70.9571L101.445 71.1794C101.633 71.1911 101.77 71.2028 101.883 71.2262C101.996 71.2496 102.071 71.273 102.133 71.3199C102.183 71.3667 102.221 71.4135 102.246 71.4837C102.258 71.5539 102.271 71.6358 102.271 71.7294V75.8483C102.271 76.0004 102.258 76.1291 102.246 76.2227C102.221 76.3163 102.183 76.3982 102.133 76.4451C102.071 76.5036 101.996 76.5387 101.895 76.5621C101.795 76.5855 101.658 76.6089 101.483 76.6206L101.495 76.8312C101.558 76.8312 101.633 76.8312 101.72 76.8312C101.808 76.8312 101.895 76.8312 101.996 76.8312C102.096 76.8312 102.196 76.8312 102.296 76.8312C102.396 76.8312 102.483 76.8312 102.571 76.8312C102.783 76.8312 102.996 76.8312 103.209 76.8429C103.421 76.8429 103.646 76.8429 103.846 76.8429V76.6206C103.646 76.6206 103.484 76.6089 103.371 76.5855C103.259 76.5621 103.184 76.527 103.121 76.4802C103.071 76.4333 103.033 76.3748 103.033 76.3163C103.021 76.2461 103.021 76.1642 103.021 76.0706V74.1282C103.096 74.1282 103.146 74.1399 103.196 74.1399C103.246 74.1399 103.284 74.1399 103.321 74.1399H103.521C103.621 74.1399 103.696 74.1399 103.759 74.1633C103.821 74.175 103.871 74.1984 103.909 74.2101C103.946 74.2335 103.971 74.2569 103.996 74.292C104.021 74.3271 104.046 74.3622 104.071 74.3973C104.234 74.6664 104.397 74.9239 104.547 75.1813C104.697 75.4387 104.834 75.6728 104.959 75.8951C105.084 76.1174 105.197 76.3046 105.285 76.4685C105.372 76.6323 105.447 76.761 105.485 76.8429C105.547 76.8429 105.61 76.8312 105.685 76.8312C105.76 76.8312 105.822 76.8312 105.885 76.8312C106.085 76.8312 106.285 76.8312 106.498 76.8429C106.71 76.8429 106.885 76.8429 107.01 76.8429L107.023 76.6206C106.873 76.6089 106.748 76.5972 106.648 76.5738C106.548 76.5621 106.473 76.527 106.397 76.4919L106.423 76.5036ZM103.446 73.8356H103.234C103.196 73.8356 103.159 73.8356 103.134 73.8356C103.096 73.8356 103.059 73.8356 103.033 73.8239V71.7528C103.033 71.6709 103.033 71.6007 103.046 71.5305C103.059 71.4603 103.071 71.4135 103.109 71.3667C103.146 71.3199 103.196 71.2848 103.271 71.2613C103.346 71.2379 103.459 71.2262 103.584 71.2262C104.034 71.2262 104.384 71.3199 104.659 71.5188C104.934 71.706 105.059 72.0102 105.059 72.4315C105.059 72.9229 104.922 73.2857 104.634 73.508C104.347 73.7303 103.959 73.8356 103.434 73.8356H103.446ZM110.737 71.5773C110.762 71.4837 110.799 71.4018 110.862 71.355C110.925 71.2964 111.012 71.2613 111.112 71.2379C111.225 71.2145 111.362 71.1911 111.525 71.1794L111.5 70.9688C111.437 70.9688 111.362 70.9688 111.275 70.9688C111.187 70.9688 111.087 70.9688 110.987 70.9688C110.887 70.9688 110.787 70.9688 110.687 70.9688C110.587 70.9688 110.487 70.9688 110.412 70.9688C110.312 70.9688 110.199 70.9688 110.074 70.9688C109.949 70.9688 109.837 70.9688 109.711 70.9688C109.599 70.9688 109.486 70.9688 109.386 70.9688C109.286 70.9688 109.199 70.9688 109.136 70.9688L109.124 71.1911C109.299 71.2028 109.449 71.2145 109.561 71.2379C109.674 71.2613 109.749 71.2848 109.812 71.3316C109.874 71.3784 109.912 71.4252 109.924 71.4954C109.937 71.5656 109.949 71.6475 109.949 71.7411V75.86C109.949 76.0121 109.937 76.1408 109.912 76.2344C109.887 76.328 109.849 76.41 109.787 76.4568C109.724 76.5153 109.649 76.5504 109.536 76.5738C109.436 76.5972 109.299 76.6206 109.124 76.6323L109.149 76.8429C109.211 76.8429 109.286 76.8429 109.374 76.8429C109.461 76.8429 109.561 76.8429 109.661 76.8429C109.761 76.8429 109.862 76.8429 109.962 76.8429C110.062 76.8429 110.162 76.8429 110.249 76.8429C110.349 76.8429 110.462 76.8429 110.587 76.8429C110.699 76.8429 110.824 76.8429 110.937 76.8429C111.05 76.8429 111.162 76.8429 111.275 76.8429C111.375 76.8429 111.462 76.8429 111.537 76.8429V76.6206C111.35 76.6089 111.212 76.5972 111.1 76.5738C110.987 76.5504 110.912 76.527 110.849 76.4802C110.799 76.4333 110.762 76.3866 110.737 76.3163C110.724 76.2461 110.712 76.1642 110.712 76.0706V71.94C110.712 71.7879 110.724 71.6709 110.749 71.5656L110.737 71.5773ZM120.316 70.9688C120.241 70.9688 120.154 70.9688 120.066 70.9805C119.979 70.9805 119.891 70.9805 119.791 70.9922C119.703 70.9922 119.616 70.9922 119.528 70.9922C119.316 70.9922 119.116 70.9922 118.928 70.9805C118.741 70.9805 118.565 70.9805 118.428 70.9805L118.415 71.2028C118.59 71.2145 118.741 71.2262 118.853 71.2496C118.966 71.273 119.053 71.3082 119.116 71.355C119.178 71.4135 119.228 71.4954 119.253 71.6007C119.278 71.706 119.291 71.8581 119.291 72.0453V75.5909L119.266 75.6026L115.076 70.9805C114.964 70.9805 114.826 70.9805 114.701 70.9805C114.564 70.9805 114.439 70.9805 114.314 70.9805C114.188 70.9805 114.076 70.9805 113.976 70.9805C113.876 70.9805 113.801 70.9805 113.738 70.9805L113.726 71.2028C113.851 71.2145 113.951 71.2262 114.038 71.2379C114.126 71.2496 114.188 71.273 114.251 71.2964C114.301 71.3199 114.364 71.355 114.401 71.3901C114.451 71.4252 114.489 71.472 114.526 71.5305C114.576 71.5773 114.601 71.6241 114.626 71.6709C114.651 71.7177 114.676 71.7762 114.689 71.8347C114.701 71.9049 114.714 71.9868 114.714 72.0921C114.714 72.1975 114.726 72.3379 114.726 72.5134V75.5792C114.726 75.8249 114.714 76.0121 114.689 76.1525C114.664 76.2929 114.614 76.3982 114.551 76.4685C114.489 76.5387 114.389 76.5855 114.276 76.6089C114.163 76.6323 114.013 76.6557 113.838 76.6674L113.863 76.878C114.013 76.878 114.188 76.878 114.364 76.878C114.539 76.878 114.714 76.8663 114.889 76.8663C115.101 76.8663 115.301 76.8663 115.489 76.878C115.677 76.878 115.839 76.878 115.989 76.878L116.002 76.6557C115.827 76.644 115.677 76.6323 115.564 76.6089C115.452 76.5855 115.364 76.5504 115.301 76.5036C115.239 76.4451 115.189 76.3631 115.164 76.2578C115.139 76.1525 115.126 76.0004 115.126 75.8015V72.2209L115.151 72.2092L118.653 76.094C118.778 76.2344 118.903 76.3748 119.016 76.5153C119.128 76.6557 119.241 76.8078 119.353 76.9482L119.691 76.8897V72.2794C119.691 72.0336 119.703 71.8464 119.728 71.706C119.753 71.5656 119.803 71.4603 119.866 71.3901C119.929 71.3199 120.016 71.273 120.129 71.2496C120.241 71.2262 120.379 71.2028 120.554 71.1911L120.541 70.9805C120.479 70.9805 120.404 70.9805 120.329 70.9805L120.316 70.9688ZM128.858 74.2452C128.77 74.2452 128.682 74.2452 128.595 74.2452C128.507 74.2452 128.407 74.2452 128.32 74.2452C128.22 74.2452 128.132 74.2452 128.045 74.2452C127.945 74.2452 127.845 74.2452 127.72 74.2452C127.607 74.2452 127.482 74.2452 127.357 74.2452C127.232 74.2452 127.107 74.2452 126.982 74.2452C126.857 74.2452 126.744 74.2452 126.632 74.2452L126.619 74.4675C126.857 74.4792 127.057 74.4909 127.194 74.5143C127.344 74.5377 127.457 74.5611 127.532 74.6079C127.607 74.6547 127.657 74.7016 127.695 74.7718C127.72 74.842 127.732 74.9239 127.732 75.0175V76.2344C127.732 76.3163 127.669 76.3866 127.569 76.4333C127.457 76.4919 127.332 76.527 127.182 76.5621C127.032 76.5972 126.894 76.6206 126.744 76.6323C126.607 76.644 126.506 76.6557 126.444 76.6557C125.994 76.6557 125.606 76.5855 125.281 76.4333C124.943 76.2812 124.668 76.0823 124.456 75.8249C124.243 75.5675 124.068 75.2749 123.968 74.9239C123.855 74.5845 123.805 74.2101 123.805 73.8122C123.805 73.4144 123.855 73.0634 123.968 72.7357C124.068 72.4081 124.243 72.1389 124.456 71.9049C124.668 71.6709 124.943 71.4954 125.281 71.3667C125.619 71.2379 126.006 71.1677 126.456 71.1677C126.694 71.1677 126.919 71.1911 127.132 71.2496C127.344 71.3082 127.519 71.3901 127.682 71.5188C127.845 71.6358 127.97 71.7879 128.07 71.9634C128.17 72.1389 128.232 72.3496 128.245 72.5953L128.52 72.5719C128.52 72.3145 128.52 72.0687 128.52 71.8347C128.52 71.6007 128.532 71.355 128.557 71.0975C128.432 71.0624 128.282 71.039 128.12 71.0039C127.957 70.9805 127.795 70.9454 127.632 70.922C127.469 70.8986 127.307 70.8869 127.144 70.8752C126.982 70.8635 126.832 70.8518 126.694 70.8518C126.156 70.8518 125.669 70.922 125.206 71.0507C124.743 71.1794 124.343 71.3784 123.993 71.6358C123.643 71.8932 123.38 72.2209 123.18 72.6187C122.98 73.0049 122.88 73.4612 122.88 73.9878C122.88 74.4441 122.967 74.8537 123.142 75.2281C123.318 75.6026 123.555 75.9185 123.868 76.1759C124.18 76.4333 124.556 76.644 124.981 76.7844C125.406 76.9248 125.881 76.995 126.394 76.995C126.744 76.995 127.094 76.9599 127.469 76.8897C127.845 76.8195 128.195 76.7376 128.557 76.6557C128.532 76.5387 128.52 76.3982 128.52 76.211C128.52 76.0238 128.507 75.8366 128.507 75.6494V75.2515C128.507 75.0994 128.52 74.9824 128.532 74.8771C128.545 74.7835 128.582 74.7016 128.62 74.643C128.67 74.5845 128.732 74.5494 128.807 74.526C128.883 74.5026 128.983 74.4792 129.12 74.4675L129.095 74.2569C129.033 74.2569 128.958 74.2569 128.87 74.2569L128.858 74.2452Z" fill="white"></path></svg>