<svg xmlns="http://www.w3.org/2000/svg" width="132" height="77" viewBox="0 0 132 77" fill="none"><path d="M11.5434 47.8617L11.5787 47.8968L11.791 55.4447C11.8028 55.7372 11.791 55.983 11.7674 56.1585C11.7438 56.3457 11.6966 56.4979 11.6023 56.6032C11.508 56.7085 11.3783 56.7904 11.2014 56.8489C11.0246 56.8957 10.8005 56.9426 10.5058 56.966L10.5411 57.3755C10.659 57.3755 10.7887 57.3755 10.942 57.3638C11.0953 57.3638 11.2604 57.3521 11.4255 57.3521C11.5905 57.3521 11.7674 57.3521 11.9325 57.3521C12.1093 57.3521 12.2744 57.3404 12.4277 57.3404C12.6163 57.3404 12.8286 57.3404 13.0408 57.3521C13.2531 57.3521 13.4653 57.3521 13.6775 57.3521C13.8898 57.3521 14.102 57.3521 14.2907 57.3638C14.4793 57.3638 14.6562 57.3755 14.7977 57.3755L14.8213 56.9426C14.4675 56.9309 14.1845 56.8957 13.9723 56.8606C13.7601 56.8255 13.595 56.7553 13.4771 56.6734C13.3592 56.5915 13.2766 56.4862 13.2413 56.3574C13.1941 56.2287 13.1705 56.0766 13.1587 55.8777L12.9111 47.8734C12.8993 47.5809 12.9111 47.3351 12.9465 47.1479C12.9819 46.9606 13.0526 46.8085 13.1587 46.7032C13.2766 46.5979 13.4299 46.516 13.6422 46.4692C13.8544 46.4223 14.1374 46.3755 14.4911 46.3521L14.4675 45.9426C14.3496 45.9426 14.161 45.9426 13.9016 45.9543C13.6422 45.9543 13.3474 45.966 13.0526 45.966C12.7578 45.966 12.4631 45.966 12.1801 45.966C11.8971 45.966 11.6731 45.966 11.5198 45.966C11.3901 46.2702 11.2604 46.5862 11.1307 46.9021C11.001 47.2181 10.8713 47.5223 10.7298 47.8383L7.39294 55.4798H7.35757L3.94998 47.9904C3.79669 47.6511 3.64341 47.3117 3.50192 46.984C3.34864 46.6564 3.20715 46.317 3.06565 45.9777C2.85342 45.9777 2.59402 45.9777 2.29924 45.9777C2.00447 45.9777 1.70969 45.9777 1.41492 45.9777C1.12014 45.9777 0.860741 45.9777 0.624922 45.966C0.389102 45.966 0.224029 45.9543 0.129701 45.9543L0.106119 46.3872C0.412684 46.3989 0.683877 46.434 0.907905 46.4926C1.14372 46.5511 1.33238 46.6564 1.48566 46.7968C1.5682 46.8787 1.65074 46.984 1.6979 47.0777C1.75686 47.183 1.80402 47.3 1.8276 47.4521C1.86297 47.5926 1.87477 47.7681 1.88656 47.9787C1.89835 48.1777 1.89835 48.4234 1.88656 48.716L1.63895 54.8596C1.62715 55.3394 1.59178 55.7138 1.54462 55.983C1.49745 56.2521 1.41492 56.4511 1.29701 56.5915C1.1791 56.7319 1.01402 56.8138 0.801786 56.8606C0.589549 56.9074 0.318356 56.9426 0 56.9777L0.0353729 57.3872C0.318356 57.3872 0.624922 57.3872 0.955069 57.3755C1.28522 57.3638 1.60357 57.3638 1.91014 57.3638C2.29924 57.3638 2.64118 57.3638 2.93595 57.3755C3.23073 57.3872 3.51371 57.3872 3.76132 57.3872L3.7849 56.9543C3.47834 56.9309 3.23073 56.8957 3.04207 56.8606C2.85342 56.8255 2.70013 56.7553 2.59402 56.65C2.4879 56.5447 2.41715 56.3809 2.39357 56.1702C2.3582 55.9596 2.3582 55.667 2.36999 55.2926L2.60581 48.4468L2.65297 48.4234C3.36043 49.9681 4.0561 51.4777 4.73997 52.9638C5.42385 54.45 6.10773 55.9713 6.7916 57.5394L7.36936 57.4692C8.05324 55.8309 8.73711 54.2277 9.42099 52.6479C10.1049 51.0681 10.8005 49.4766 11.508 47.8617H11.5434ZM22.7684 56.0298C23.299 56.533 23.9239 56.9309 24.6549 57.2C25.386 57.4692 26.1878 57.6096 27.0603 57.6096C27.9564 57.6096 28.7582 57.4574 29.4892 57.1532C30.2203 56.8489 30.8452 56.4277 31.364 55.8894C31.8828 55.3511 32.2955 54.7074 32.5785 53.9702C32.8732 53.233 33.0147 52.4138 33.0147 51.5362C33.0147 50.6468 32.8732 49.8511 32.5785 49.1255C32.2837 48.4117 31.8828 47.7915 31.3522 47.2883C30.8334 46.7851 30.1967 46.3872 29.4657 46.1181C28.7346 45.8489 27.921 45.7085 27.0485 45.7085C26.1524 45.7085 25.3506 45.8606 24.6196 46.1649C23.8885 46.4692 23.2636 46.8904 22.7448 47.4287C22.226 47.967 21.8133 48.6106 21.5303 49.3479C21.2356 50.0851 21.0941 50.9043 21.0941 51.7819C21.0941 52.6713 21.2356 53.467 21.5303 54.1926C21.8251 54.9064 22.2378 55.5266 22.7566 56.0298H22.7684ZM23.1103 49.0319C23.3461 48.4 23.6527 47.8851 24.0418 47.4872C24.4309 47.0894 24.879 46.8085 25.386 46.6213C25.893 46.4457 26.4236 46.3521 26.9778 46.3521C27.4966 46.3521 28.0036 46.4457 28.5224 46.633C29.0412 46.8202 29.5128 47.1362 29.9255 47.5691C30.3382 48.0138 30.6801 48.5872 30.9513 49.3128C31.2107 50.0383 31.3522 50.9277 31.3522 51.9926C31.3522 52.8936 31.2343 53.666 30.9985 54.2979C30.7627 54.9298 30.4561 55.4447 30.067 55.8426C29.6779 56.2404 29.2298 56.5213 28.7228 56.7085C28.2158 56.884 27.6852 56.9777 27.131 56.9777C26.6122 56.9777 26.1052 56.884 25.5864 56.6968C25.0676 56.5096 24.596 56.1936 24.1833 55.7606C23.7706 55.316 23.4287 54.7426 23.1575 54.017C22.8981 53.2915 22.7566 52.4021 22.7566 51.3372C22.7566 50.4362 22.8745 49.6638 23.1103 49.0319ZM40.2662 46.5511C40.3723 46.5979 40.4666 46.6564 40.5492 46.7266C40.6317 46.7968 40.7142 46.8904 40.785 46.984C40.8675 47.0777 40.9265 47.1713 40.9736 47.2532C41.0208 47.3351 41.0562 47.4521 41.0916 47.5809C41.1151 47.7096 41.1387 47.8851 41.1505 48.084C41.1623 48.2947 41.1623 48.5638 41.1623 48.8915V54.8479C41.1623 55.3277 41.1387 55.7021 41.0916 55.9713C41.0444 56.2404 40.9619 56.4394 40.8322 56.5798C40.7025 56.7202 40.5374 56.8021 40.3369 56.8489C40.1247 56.8957 39.8653 56.9309 39.5469 56.966L39.5823 57.3755C39.8653 57.3755 40.1719 57.3755 40.502 57.3638C40.8322 57.3521 41.1505 57.3521 41.4571 57.3521C41.8462 57.3521 42.2117 57.3521 42.5536 57.3638C42.9074 57.3755 43.2021 57.3755 43.4615 57.3755L43.4851 56.9426C43.155 56.9192 42.8838 56.884 42.6833 56.8489C42.4829 56.8138 42.3178 56.7436 42.1999 56.6383C42.082 56.533 41.9995 56.3691 41.9523 56.1585C41.9051 55.9479 41.8816 55.6553 41.8816 55.2809V48.3298L41.9287 48.3064L48.3666 55.8543C48.6024 56.1351 48.8146 56.4043 49.0269 56.6851C49.2391 56.9543 49.4396 57.2468 49.6518 57.5394L50.2767 57.4223V48.4819C50.2767 48.0021 50.3003 47.6277 50.3475 47.3702C50.3946 47.1011 50.4772 46.9021 50.5951 46.7617C50.713 46.6213 50.8663 46.5394 51.0667 46.4926C51.2672 46.4457 51.5266 46.4106 51.8331 46.3755L51.8213 45.966C51.7034 45.966 51.5737 45.966 51.4322 45.9777C51.279 45.9777 51.1257 45.9894 50.9606 45.9894C50.7955 45.9894 50.6305 46.0011 50.4654 46.0011C50.3003 46.0011 50.1352 46.0128 49.982 46.0128C49.5929 46.0128 49.2273 46.0128 48.8736 46.0011C48.5199 45.9894 48.2133 45.9894 47.9539 45.9894L47.9303 46.4223C48.2605 46.4457 48.5317 46.4809 48.7321 46.516C48.9443 46.5511 49.1094 46.6213 49.2273 46.7266C49.3452 46.8319 49.4278 46.9957 49.4749 47.2064C49.5221 47.417 49.5457 47.7096 49.5457 48.084V54.9649L49.5103 54.9883L41.799 46.0128C41.5868 46.0128 41.351 46.0128 41.1033 46.0128C40.8557 46.0128 40.6081 46.0128 40.3841 46.0128C40.1483 46.0128 39.936 46.0128 39.7474 46.0011C39.5587 46.0011 39.4172 45.9894 39.3229 45.9894L39.2993 46.4223C39.5234 46.434 39.712 46.4574 39.8653 46.4809C40.0186 46.5043 40.1483 46.5394 40.2544 46.5862L40.2662 46.5511ZM64.874 46.5511C65.322 46.5511 65.6875 46.5862 65.9587 46.6681C66.2299 46.75 66.4539 46.8787 66.6072 47.066C66.7723 47.2532 66.8902 47.4872 66.9728 47.7798C67.0553 48.0723 67.1378 48.4351 67.2086 48.8564L67.6684 48.833C67.6684 48.5638 67.6684 48.3181 67.6802 48.084C67.6802 47.85 67.692 47.6277 67.7038 47.4053C67.7156 47.183 67.7274 46.9489 67.751 46.7149C67.7745 46.4809 67.7981 46.2234 67.8217 45.9426C67.3383 45.9426 66.8666 45.9426 66.3832 45.9543C65.9116 45.9543 65.4517 45.966 65.0154 45.966C64.5792 45.966 64.1547 45.966 63.7302 45.966C63.3058 45.966 62.952 45.966 62.6808 45.966C62.3979 45.966 62.0913 45.966 61.7611 45.966C61.431 45.966 61.0537 45.966 60.6174 45.966C60.1812 45.966 59.7331 45.966 59.2732 45.9543C58.8134 45.9543 58.33 45.9426 57.8465 45.9426C57.8819 46.3638 57.9173 46.7383 57.9291 47.066C57.9409 47.3936 57.9527 47.733 57.9527 48.084V48.833L58.4125 48.8564C58.4832 48.4234 58.5658 48.0723 58.6483 47.7798C58.7427 47.4872 58.8606 47.2415 59.0374 47.066C59.2025 46.8787 59.4265 46.75 59.7095 46.6681C59.9807 46.5862 60.3462 46.5511 60.7943 46.5511H62.1267V55.4447C62.1267 55.7489 62.1031 55.9947 62.0677 56.1819C62.0323 56.3691 61.9616 56.5213 61.8437 56.6266C61.7258 56.7319 61.5607 56.8138 61.3367 56.8606C61.1126 56.9074 60.8179 56.9426 60.4406 56.966L60.4759 57.3755C60.6292 57.3755 60.8061 57.3755 60.9947 57.3638C61.1834 57.3638 61.3838 57.3521 61.5725 57.3521C61.7611 57.3521 61.9616 57.3521 62.1502 57.3521C62.3389 57.3521 62.5158 57.3404 62.669 57.3404C62.8577 57.3404 63.0699 57.3404 63.294 57.3521C63.518 57.3521 63.742 57.3521 63.9661 57.3521C64.1901 57.3521 64.4141 57.3521 64.6264 57.3638C64.8386 57.3638 65.0272 57.3755 65.2041 57.3755L65.2277 56.9426C64.8386 56.9309 64.5202 56.8957 64.2962 56.8606C64.0722 56.8255 63.8953 56.7553 63.7892 56.6734C63.6713 56.5915 63.6005 56.4862 63.577 56.3574C63.5416 56.2287 63.5298 56.0766 63.5298 55.8777V46.5394H64.8975L64.874 46.5511ZM81.5582 56.7904C81.3695 56.8723 81.0394 56.9192 80.5913 56.9543L80.6267 57.3638C80.9686 57.3638 81.3106 57.3638 81.6525 57.3521C81.9945 57.3404 82.3364 57.3404 82.6783 57.3404C83.091 57.3404 83.4919 57.3404 83.9046 57.3521C84.3055 57.3638 84.6828 57.3638 85.0129 57.3638L85.0483 56.9309C84.73 56.9074 84.4824 56.8723 84.2819 56.8372C84.0815 56.8021 83.9164 56.7202 83.7985 56.6149C83.6688 56.5096 83.5627 56.3574 83.4565 56.1585C83.3622 55.9596 83.2561 55.6904 83.1264 55.3394L80.4145 47.5926C80.3319 47.3351 80.2376 47.0426 80.1315 46.7266C80.0254 46.4106 79.9428 46.0596 79.8485 45.6851L79.0939 45.7787C79.0113 45.9894 78.917 46.1766 78.8109 46.3521C78.7048 46.5277 78.5987 46.7383 78.5043 46.9723L75.1675 55.0234C74.9906 55.433 74.8373 55.7489 74.7076 55.9947C74.5779 56.2404 74.4364 56.4277 74.2832 56.5681C74.1299 56.7085 73.9648 56.8021 73.7644 56.8489C73.5639 56.8957 73.3045 56.9426 72.9979 56.966L73.0215 57.3755C73.3163 57.3755 73.6229 57.3755 73.9412 57.3638C74.2596 57.3521 74.5661 57.3521 74.8609 57.3521C75.2264 57.3521 75.592 57.3521 75.9575 57.3638C76.323 57.3755 76.6649 57.3755 76.9597 57.3755L76.9951 56.9426C76.4881 56.9192 76.1343 56.8723 75.9457 56.7904C75.7452 56.7085 75.6509 56.5681 75.6509 56.3574C75.6509 56.2404 75.7335 55.9479 75.8867 55.5032L76.8182 53.1628H80.8272L81.6761 55.6904C81.7233 55.8309 81.7586 55.9596 81.794 56.0766C81.8294 56.1936 81.8412 56.2872 81.8412 56.3809C81.8412 56.5915 81.7468 56.7319 81.5464 56.8021L81.5582 56.7904ZM77.0894 52.4606L78.976 47.7564H79.0113L80.5913 52.4606H77.0894ZM92.7832 56.0181C93.361 56.5213 94.0448 56.9192 94.8348 57.2C95.6248 57.4809 96.4856 57.6213 97.4288 57.6213C98.0656 57.6213 98.7141 57.5511 99.3979 57.4223C100.082 57.2819 100.742 57.1298 101.391 56.9543C101.355 56.7319 101.332 56.4394 101.32 56.0883C101.308 55.7372 101.308 55.3745 101.308 54.9883V54.2277C101.308 53.9351 101.32 53.6894 101.355 53.5138C101.379 53.3266 101.438 53.1745 101.52 53.0691C101.603 52.9638 101.721 52.8819 101.862 52.8351C102.004 52.7883 102.192 52.7532 102.428 52.7298L102.393 52.3202C102.275 52.3202 102.133 52.3202 101.98 52.3202C101.827 52.3202 101.662 52.3319 101.497 52.3319C101.332 52.3319 101.155 52.3319 100.978 52.3436C100.801 52.3436 100.636 52.3436 100.471 52.3436C100.294 52.3436 100.094 52.3436 99.8814 52.3436C99.6691 52.3436 99.4451 52.3319 99.2093 52.3319C98.9853 52.3319 98.7612 52.3319 98.5254 52.3202C98.3014 52.3202 98.0891 52.3202 97.8887 52.3202L97.8651 52.7532C98.3014 52.7649 98.6669 52.8 98.9263 52.8351C99.1975 52.8702 99.3979 52.9404 99.5512 53.0223C99.6927 53.1043 99.787 53.2096 99.846 53.3383C99.8932 53.467 99.9167 53.6191 99.9167 53.8181V56.1702C99.9167 56.3223 99.8106 56.4628 99.6102 56.5564C99.4097 56.6617 99.1621 56.7436 98.8909 56.8021C98.6197 56.8606 98.3485 56.9074 98.0891 56.9309C97.8297 56.9543 97.6411 56.966 97.535 56.966C96.7214 56.966 96.0021 56.8255 95.389 56.533C94.7759 56.2404 94.2689 55.8543 93.868 55.3511C93.4671 54.8596 93.1605 54.2745 92.9601 53.6074C92.7596 52.9404 92.6535 52.2266 92.6535 51.466C92.6535 50.7053 92.7478 50.0149 92.9483 49.383C93.1487 48.7511 93.4435 48.2128 93.8444 47.7681C94.2453 47.3234 94.7523 46.9723 95.3654 46.7266C95.9786 46.4809 96.6978 46.3521 97.5232 46.3521C97.9594 46.3521 98.3839 46.4106 98.7612 46.516C99.1503 46.6213 99.4805 46.7968 99.7753 47.0309C100.058 47.2649 100.294 47.5457 100.483 47.8968C100.66 48.2479 100.766 48.6574 100.801 49.1255L101.308 49.0787C101.308 48.5755 101.308 48.0957 101.32 47.6511C101.32 47.2064 101.343 46.7266 101.402 46.2234C101.167 46.1649 100.895 46.0947 100.601 46.0479C100.306 45.9894 100.011 45.9426 99.7045 45.8957C99.3979 45.8489 99.1032 45.8138 98.8084 45.7904C98.5136 45.767 98.2424 45.7553 97.9948 45.7553C97.0162 45.7553 96.0965 45.884 95.2475 46.1298C94.3986 46.3755 93.6557 46.7617 93.019 47.2649C92.3823 47.7681 91.8871 48.4 91.5216 49.1606C91.1561 49.9213 90.9792 50.7989 90.9792 51.817C90.9792 52.6947 91.1443 53.4904 91.4626 54.216C91.781 54.9298 92.229 55.55 92.8068 56.0532L92.7832 56.0181ZM110.198 46.6564C110.305 46.7383 110.375 46.8436 110.411 46.9723C110.446 47.1011 110.458 47.2532 110.458 47.4521V55.4564C110.458 55.7606 110.434 56.0064 110.399 56.1936C110.364 56.3809 110.281 56.5213 110.175 56.6383C110.069 56.7436 109.915 56.8255 109.727 56.8723C109.538 56.9192 109.279 56.966 108.972 56.9894L109.008 57.3989C109.114 57.3989 109.255 57.3989 109.42 57.3872C109.585 57.3872 109.762 57.3755 109.939 57.3755C110.128 57.3755 110.305 57.3755 110.493 57.3755C110.682 57.3755 110.847 57.3638 111.012 57.3638C111.201 57.3638 111.413 57.3638 111.625 57.3755C111.837 57.3755 112.05 57.3755 112.262 57.3755C112.474 57.3755 112.686 57.3755 112.875 57.3872C113.064 57.3872 113.229 57.3989 113.358 57.3989V56.966C113.017 56.9543 112.757 56.9192 112.557 56.884C112.356 56.8489 112.203 56.7787 112.097 56.6968C111.991 56.6149 111.92 56.5096 111.896 56.3809C111.861 56.2521 111.849 56.1 111.849 55.9011V47.8851C111.849 47.5926 111.873 47.3468 111.908 47.1713C111.944 46.984 112.026 46.8436 112.132 46.7266C112.25 46.6213 112.403 46.5394 112.592 46.4926C112.792 46.4457 113.04 46.3989 113.358 46.3755L113.311 45.966C113.193 45.966 113.064 45.966 112.899 45.9777C112.734 45.9777 112.557 45.9894 112.38 45.9894C112.191 45.9894 112.014 45.9894 111.814 45.9894C111.625 45.9894 111.46 45.9894 111.307 45.9894C111.118 45.9894 110.906 45.9894 110.682 45.9894C110.458 45.9894 110.246 45.9894 110.022 45.9894C109.809 45.9894 109.621 45.9894 109.432 45.9777C109.243 45.9777 109.09 45.966 108.96 45.966L108.937 46.3989C109.267 46.4106 109.526 46.4457 109.727 46.4809C109.927 46.516 110.081 46.5862 110.187 46.6681L110.198 46.6564ZM131.576 49.1372C131.281 48.4234 130.88 47.8032 130.349 47.3C129.83 46.7968 129.194 46.3989 128.463 46.1298C127.732 45.8606 126.918 45.7202 126.046 45.7202C125.149 45.7202 124.348 45.8723 123.617 46.1766C122.886 46.4809 122.261 46.9021 121.742 47.4404C121.223 47.9787 120.81 48.6223 120.527 49.3596C120.233 50.0968 120.091 50.916 120.091 51.7936C120.091 52.683 120.233 53.4787 120.527 54.2043C120.822 54.9181 121.235 55.5383 121.754 56.0415C122.284 56.5447 122.909 56.9426 123.64 57.2117C124.371 57.4809 125.173 57.6213 126.046 57.6213C126.942 57.6213 127.743 57.4692 128.474 57.1649C129.206 56.8606 129.83 56.4394 130.349 55.9011C130.868 55.3628 131.281 54.7192 131.564 53.9819C131.847 53.2447 132 52.4255 132 51.5479C132 50.6585 131.859 49.8628 131.564 49.1372H131.576ZM130.007 54.2979C129.771 54.9298 129.465 55.4447 129.076 55.8426C128.687 56.2404 128.239 56.5213 127.732 56.7085C127.225 56.884 126.694 56.9777 126.14 56.9777C125.621 56.9777 125.114 56.884 124.595 56.6968C124.076 56.5096 123.605 56.1936 123.192 55.7606C122.779 55.316 122.438 54.7426 122.166 54.017C121.907 53.2915 121.765 52.4021 121.765 51.3372C121.765 50.4362 121.883 49.6638 122.119 49.0319C122.355 48.4 122.662 47.8851 123.051 47.4872C123.44 47.0894 123.888 46.8085 124.395 46.6213C124.902 46.4457 125.432 46.3521 125.987 46.3521C126.505 46.3521 127.012 46.4457 127.531 46.633C128.05 46.8202 128.522 47.1362 128.934 47.5691C129.347 48.0138 129.689 48.5872 129.96 49.3128C130.22 50.0383 130.361 50.9277 130.361 51.9926C130.361 52.8936 130.243 53.666 130.007 54.2979ZM7.7113 64.8064H124.312V64.4787H7.7113V64.8064ZM47.105 3.47553C48.1897 4.78617 50.5243 8.56596 51.7034 17.6936C52.0218 20.1511 52.1515 22.3979 52.1515 24.3989C52.1515 27.7926 51.7978 30.4723 51.444 32.3096C51.0903 34.1468 50.7366 35.1298 50.7366 35.1298L50.8309 35.1766C50.8309 35.1766 52.2694 33.433 53.3424 31.783C55.7242 28.1202 55.9954 25.4989 55.9954 25.4989V25.4872V25.4755C55.9954 25.4755 55.3704 23.6149 54.7455 21.2628C54.1206 18.8989 53.4957 16.0436 53.4957 14.0426C53.4957 13.3053 53.5782 12.6851 53.7786 12.2521C53.9791 11.8191 54.2739 11.5851 54.7219 11.5851C55.0757 11.5851 55.5355 11.7372 56.1133 12.1C60.3226 14.6979 64.4613 26.9851 65.2041 33C65.2159 33.117 65.2277 33.2223 65.2277 33.3277C65.2277 34.8138 63.9189 35.5394 63.9189 35.5394L63.8599 35.5745L63.9189 35.6213C63.9189 35.6213 64.532 36.1596 64.9683 37.1777C65.2984 37.9266 65.664 39.2021 65.7819 39.6351V39.7638H65.8172V39.7755H65.8526H65.888C65.888 39.7755 65.888 39.7755 65.888 39.7638H65.9234V39.6351C66.0413 39.2021 66.4186 37.9266 66.7369 37.1777C67.185 36.1596 67.7863 35.6213 67.7863 35.6213L67.8453 35.5745L67.7863 35.5394C67.7863 35.5394 66.4657 34.8138 66.4775 33.3277C66.4775 33.2223 66.4893 33.117 66.5011 33C67.2322 26.9734 71.3826 14.6979 75.592 12.1C76.1697 11.7372 76.6296 11.5851 76.9833 11.5851C77.4314 11.5851 77.7261 11.8191 77.9266 12.2521C78.127 12.6851 78.2096 13.2936 78.2096 14.0426C78.2096 16.0436 77.5846 18.8989 76.9597 21.2628C76.3348 23.6266 75.7099 25.4755 75.7099 25.4755V25.4872V25.4989C75.7099 25.5106 75.9811 28.1202 78.3628 31.783C79.4358 33.4447 80.8743 35.1766 80.8743 35.1766L80.9686 35.1298C80.9686 35.1298 80.6149 34.1468 80.2612 32.3096C79.9075 30.4723 79.5537 27.7926 79.5537 24.3989C79.5537 22.3979 79.6716 20.1511 80.0018 17.6936C80.7918 11.6085 82.0888 7.89894 83.1971 5.71064C83.7513 4.62234 84.2465 3.90851 84.6121 3.46383C84.9776 3.03085 85.1898 2.86702 85.1898 2.86702L85.1427 2.7734C85.1427 2.7734 81.8412 3.67447 76.9479 6.28404C74.4129 7.64149 71.3708 10.5787 71.0878 10.8479C70.9345 10.8128 70.0974 10.5904 69.1895 10.1691C68.1872 9.70106 67.1025 8.96383 66.7841 7.95745C66.3832 6.72872 66.2771 5.87447 66.2771 5.31277C66.2771 4.9734 66.3125 4.73936 66.3478 4.58723C66.3832 4.43511 66.4186 4.3766 66.4186 4.3766L67.3029 1.74362L67.2793 1.72021C66.4304 0.959574 66.0531 0.32766 65.9352 0.093617V0.0234043L65.8998 0.0117021C65.8998 0 65.888 0 65.888 0H65.8644H65.8408C65.8408 0 65.8408 0 65.8408 0.0117021L65.8055 0.0234043V0.093617C65.6875 0.315957 65.3102 0.959574 64.4613 1.70851L64.4377 1.73191L65.322 4.35319C65.322 4.36489 65.3574 4.4234 65.4046 4.56383C65.4399 4.71596 65.4753 4.95 65.4753 5.28936C65.4753 5.85106 65.3692 6.70532 64.9683 7.93404C64.6381 8.95213 63.5652 9.67766 62.5629 10.1457C61.655 10.567 60.8297 10.7777 60.6646 10.8245C60.3816 10.5553 57.3513 7.61809 54.8045 6.26064C49.9112 3.65106 46.6215 2.75 46.6097 2.75L46.5626 2.84362C46.5626 2.84362 46.7866 3.00745 47.1403 3.44043L47.105 3.47553ZM65.829 9.22128C66.0766 9.54894 67.0435 10.883 67.0317 11.7723C67.0317 11.8074 67.0317 11.8426 67.0317 11.8777C66.961 12.7436 65.9941 12.9543 65.829 12.9777C65.664 12.9426 64.6971 12.7436 64.6264 11.8777C64.6264 11.8426 64.6264 11.8074 64.6264 11.7723C64.6264 10.8713 65.5814 9.54894 65.8408 9.22128H65.829ZM63.8364 13.5745C64.9211 13.7734 65.546 13.7968 65.7583 13.7968C65.7937 13.7968 65.8172 13.7968 65.829 13.7968C65.8408 13.7968 65.8644 13.7968 65.8998 13.7968C66.1238 13.7968 66.7487 13.7734 67.8217 13.5745C68.7532 13.3989 69.4017 13.1415 69.6847 13.0128C67.2322 17.6117 66.1002 25.0543 65.829 27.1255C65.546 25.0309 64.4259 17.6 61.9734 13.0128C62.2446 13.1415 62.9049 13.3989 63.8364 13.5745ZM15.1986 75.7479C15.0925 75.9351 14.9628 76.0989 14.8095 76.2277C14.6562 76.3681 14.4675 76.4617 14.2671 76.5319C14.0666 76.5904 13.8544 76.6255 13.6304 76.6255C13.2177 76.6255 12.864 76.5553 12.5692 76.4032C12.2744 76.2511 12.015 76.0521 11.8146 75.7947C11.6141 75.5372 11.4608 75.2447 11.3665 74.8936C11.2722 74.5543 11.2132 74.1798 11.2132 73.7819C11.2132 73.384 11.2722 73.033 11.3783 72.7053C11.4844 72.3777 11.6495 72.1085 11.8617 71.8745C12.074 71.6404 12.3334 71.4649 12.6517 71.3362C12.9701 71.2075 13.3238 71.1372 13.7365 71.1372C13.9487 71.1372 14.1374 71.1606 14.3142 71.2191C14.4911 71.2777 14.6444 71.3596 14.7859 71.4766C14.9156 71.5936 15.0217 71.734 15.1042 71.9213C15.1868 72.0968 15.2339 72.3074 15.2457 72.5532L15.5051 72.5298C15.5051 72.2723 15.5051 72.0149 15.5169 71.7809C15.5287 71.5468 15.5405 71.3011 15.5641 71.0319C15.3165 70.9617 15.0453 70.9149 14.7623 70.8798C14.4793 70.8447 14.2081 70.8213 13.9605 70.8213C13.4771 70.8213 13.0172 70.8915 12.581 71.0202C12.1447 71.1489 11.7556 71.3479 11.4255 71.6053C11.0953 71.8628 10.8359 72.1904 10.6355 72.5883C10.4468 72.9745 10.3407 73.4309 10.3407 73.9575C10.3407 74.4138 10.4232 74.8234 10.5765 75.1979C10.7416 75.5723 10.9656 75.8883 11.2486 76.1457C11.5316 76.4032 11.8735 76.6138 12.2626 76.7543C12.6517 76.8947 13.088 76.9649 13.5478 76.9649C13.8662 76.9649 14.1845 76.9415 14.5029 76.883C14.8213 76.8245 15.1396 76.7543 15.4698 76.6606C15.4933 76.3915 15.5287 76.134 15.5759 75.9C15.623 75.666 15.6702 75.4085 15.741 75.1394L15.4933 75.0808C15.3872 75.3383 15.2811 75.5606 15.175 75.7479H15.1986ZM23.7117 70.9617C23.5112 70.9734 23.3226 70.9734 23.1457 70.9734C22.9217 70.9734 22.7094 70.9734 22.509 70.9617C22.3085 70.9617 22.1317 70.9617 21.9902 70.9617L21.9784 71.184C22.1788 71.1957 22.3439 71.2191 22.4736 71.2426C22.6033 71.266 22.6976 71.3128 22.7684 71.3713C22.8391 71.4298 22.8863 71.5234 22.9217 71.6287C22.9452 71.734 22.957 71.8862 22.957 72.0617V74.6362C22.957 74.9638 22.9099 75.2447 22.8155 75.4904C22.7212 75.7245 22.6033 75.9117 22.4382 76.0638C22.2849 76.216 22.1081 76.3213 21.8958 76.3915C21.6954 76.4617 21.4832 76.4968 21.2591 76.4968C21.0351 76.4968 20.8347 76.4617 20.6224 76.4032C20.422 76.3447 20.2333 76.2394 20.0682 76.1106C19.9032 75.9819 19.7735 75.8064 19.6791 75.5957C19.5848 75.3851 19.5259 75.1277 19.5259 74.8351V72.0032C19.5259 71.8511 19.5377 71.7223 19.5612 71.6287C19.5848 71.5234 19.632 71.4532 19.6909 71.383C19.7499 71.3245 19.8442 71.2777 19.9503 71.2426C20.0565 71.2191 20.2097 71.1957 20.3866 71.184L20.363 70.9734C20.2923 70.9734 20.2097 70.9734 20.1154 70.9734C20.0211 70.9734 19.9268 70.9734 19.8206 70.9734C19.7145 70.9734 19.6202 70.9734 19.5141 70.9734C19.4079 70.9734 19.3254 70.9734 19.2429 70.9734C19.1368 70.9734 19.0306 70.9734 18.9127 70.9734C18.7948 70.9734 18.6769 70.9734 18.559 70.9734C18.4529 70.9734 18.3468 70.9734 18.2406 70.9734C18.1345 70.9734 18.052 70.9734 17.9812 70.9734L17.9694 71.1957C18.1581 71.2075 18.2996 71.2191 18.4175 71.2426C18.5236 71.266 18.618 71.3011 18.6769 71.3479C18.7359 71.3947 18.7712 71.4532 18.7948 71.5234C18.8184 71.5936 18.8184 71.6755 18.8184 71.7691V75.0457C18.8184 75.3734 18.8774 75.6543 18.9953 75.9C19.1132 76.1457 19.2782 76.3447 19.4787 76.4968C19.6791 76.6606 19.9032 76.7777 20.1626 76.8479C20.422 76.9298 20.6932 76.9649 20.9761 76.9649C21.2591 76.9649 21.5421 76.9298 21.8251 76.8479C22.1081 76.766 22.3557 76.6372 22.5679 76.4617C22.792 76.2862 22.9688 76.0521 23.0985 75.783C23.24 75.5021 23.299 75.1628 23.299 74.7649V72.1787C23.299 71.9564 23.3108 71.7809 23.3343 71.6521C23.3579 71.5234 23.4051 71.4298 23.4758 71.3596C23.5466 71.2894 23.6291 71.2543 23.747 71.2309C23.8649 71.2075 24.0064 71.184 24.1833 71.1723L24.1715 70.9617C24.0418 70.9617 23.8767 70.9617 23.6763 70.9734L23.7117 70.9617ZM29.336 74.0862C29.1827 73.9457 28.994 73.8287 28.7936 73.7234C28.5931 73.6181 28.3927 73.5245 28.1922 73.4426C28.0272 73.3723 27.8739 73.3021 27.7324 73.2319C27.5909 73.1617 27.4612 73.0798 27.3433 72.9745C27.2372 72.8809 27.1428 72.7638 27.0839 72.6234C27.0249 72.4947 26.9895 72.3308 26.9895 72.1319C26.9895 71.9798 27.0131 71.8511 27.0721 71.734C27.1192 71.617 27.19 71.5117 27.2843 71.4298C27.3787 71.3479 27.4848 71.2777 27.6027 71.2309C27.7206 71.184 27.8621 71.1606 28.0154 71.1606C28.4045 71.1606 28.711 71.266 28.9351 71.4766C29.1591 71.6872 29.3006 72.0149 29.336 72.4479L29.5954 72.4245C29.5954 72.2957 29.5954 72.167 29.5954 72.0617C29.5954 71.9447 29.5954 71.8394 29.6071 71.734C29.6071 71.6287 29.6189 71.5117 29.6189 71.4064C29.6307 71.2894 29.6425 71.1723 29.6543 71.0436C29.4067 70.9734 29.1709 70.9266 28.9468 70.8915C28.7228 70.8564 28.487 70.833 28.2276 70.833C27.9564 70.833 27.7088 70.8681 27.473 70.9383C27.2372 71.0085 27.0249 71.1138 26.8481 71.2426C26.6712 71.383 26.5297 71.5468 26.4236 71.7457C26.3175 71.9447 26.2703 72.167 26.2703 72.4245C26.2703 72.6702 26.3175 72.8691 26.4118 73.0447C26.5061 73.2202 26.624 73.3723 26.7773 73.5128C26.9306 73.6532 27.0957 73.7702 27.2843 73.8638C27.473 73.9575 27.6616 74.0511 27.8385 74.133C28.0036 74.2032 28.1686 74.2851 28.3219 74.3553C28.4752 74.4372 28.6167 74.5191 28.7464 74.6245C28.8643 74.7298 28.9704 74.8468 29.0412 74.9989C29.1119 75.1394 29.1473 75.3149 29.1473 75.5138C29.1473 75.6777 29.1237 75.8181 29.0648 75.9468C29.0058 76.0755 28.9233 76.1926 28.8289 76.2979C28.7228 76.3915 28.6049 76.4734 28.4752 76.5202C28.3337 76.567 28.1922 76.6021 28.0272 76.6021C27.7795 76.6021 27.5791 76.567 27.4022 76.4851C27.2254 76.4149 27.0839 76.3096 26.9542 76.1692C26.8245 76.0404 26.7184 75.8766 26.624 75.7011C26.5297 75.5255 26.4472 75.3266 26.3646 75.116L26.1052 75.1745C26.176 75.4436 26.2349 75.7011 26.2703 75.9351C26.3057 76.1692 26.341 76.4266 26.3764 76.6957C26.6476 76.7777 26.907 76.8362 27.1428 76.883C27.3904 76.9298 27.6145 76.9532 27.8503 76.9532C28.1097 76.9532 28.3573 76.9181 28.6049 76.8362C28.8525 76.7543 29.0648 76.6489 29.2652 76.4968C29.4539 76.3447 29.6071 76.1692 29.7251 75.9468C29.843 75.7362 29.9019 75.4904 29.9019 75.2096C29.9019 74.9638 29.8548 74.7415 29.7486 74.566C29.6543 74.3787 29.5246 74.2266 29.3595 74.0862H29.336ZM35.597 70.9617C35.3729 70.9617 35.1489 70.9617 34.9367 70.9617C34.7126 70.9617 34.5358 70.9617 34.3943 70.9617C34.2528 70.9617 34.0995 70.9617 33.9226 70.9617C33.7576 70.9617 33.5571 70.9617 33.3331 70.9617C33.1091 70.9617 32.885 70.9617 32.6374 70.9617C32.4016 70.9617 32.154 70.9617 31.9064 70.9617C31.93 71.184 31.9418 71.3713 31.9418 71.5351C31.9536 71.6989 31.9536 71.8745 31.9536 72.0617V72.4479L32.1894 72.4596C32.2247 72.2372 32.2719 72.05 32.3073 71.8979C32.3544 71.7457 32.4134 71.6287 32.5077 71.5234C32.5903 71.4298 32.7082 71.3596 32.8497 71.3128C32.9912 71.2777 33.1798 71.2543 33.4038 71.2543H34.0877V75.8415C34.0877 75.9936 34.0759 76.1223 34.0641 76.216C34.0406 76.3096 34.0052 76.3915 33.9462 76.45C33.8873 76.5085 33.8047 76.5436 33.6868 76.567C33.5689 76.5904 33.4156 76.6138 33.227 76.6255L33.2506 76.8362C33.3331 76.8362 33.4156 76.8362 33.5218 76.8362C33.6161 76.8362 33.7222 76.8362 33.8165 76.8362C33.9109 76.8362 34.017 76.8362 34.1113 76.8362C34.2056 76.8362 34.3 76.8362 34.3825 76.8362C34.4768 76.8362 34.5829 76.8362 34.7008 76.8362C34.8188 76.8362 34.9249 76.8362 35.0428 76.8362C35.1607 76.8362 35.2668 76.8362 35.3847 76.8362C35.4908 76.8362 35.597 76.8362 35.6795 76.8362L35.6913 76.6138C35.4908 76.6021 35.3258 76.5904 35.2079 76.567C35.09 76.5436 35.0074 76.5202 34.9485 76.4734C34.8895 76.4266 34.8541 76.3798 34.8423 76.3096C34.8305 76.2394 34.8188 76.1574 34.8188 76.0638V71.2543H35.5262C35.762 71.2543 35.9389 71.2777 36.0804 71.3128C36.2219 71.3479 36.328 71.4181 36.4105 71.5234C36.4931 71.617 36.552 71.7457 36.5992 71.8979C36.6464 72.05 36.6817 72.2372 36.7171 72.4596L36.9529 72.4479C36.9529 72.3074 36.9529 72.1787 36.9529 72.0617C36.9529 71.9447 36.9647 71.8277 36.9647 71.7106C36.9765 71.5936 36.9765 71.4766 36.9883 71.3596C37.0001 71.2426 37.0119 71.1021 37.0237 70.9617C36.7761 70.9617 36.5285 70.9617 36.2926 70.9617C36.045 70.9617 35.821 70.9617 35.5852 70.9617H35.597ZM44.4402 71.6521C44.169 71.3947 43.8506 71.184 43.4733 71.0436C43.096 70.9032 42.6833 70.833 42.2353 70.833C41.7754 70.833 41.3628 70.9149 40.9854 71.067C40.6081 71.2191 40.2898 71.4415 40.0186 71.7106C39.7474 71.9915 39.5469 72.3192 39.3937 72.7053C39.2404 73.0915 39.1696 73.5011 39.1696 73.9575C39.1696 74.4138 39.2404 74.8234 39.3937 75.1979C39.5469 75.5723 39.7592 75.8766 40.0186 76.1457C40.2898 76.4032 40.6081 76.6138 40.9854 76.7543C41.3628 76.8947 41.7754 76.9649 42.2235 76.9649C42.6833 76.9649 43.096 76.883 43.4733 76.7309C43.8506 76.5787 44.169 76.3564 44.4402 76.0755C44.7114 75.7947 44.9118 75.467 45.0651 75.0808C45.2184 74.6947 45.2891 74.2851 45.2891 73.8287C45.2891 73.3723 45.2184 72.9628 45.0651 72.5883C44.9118 72.2138 44.7114 71.8979 44.4402 71.6404V71.6521ZM44.2633 75.2564C44.1454 75.584 43.9803 75.8415 43.7799 76.0521C43.5795 76.2511 43.3554 76.4032 43.0842 76.4968C42.8248 76.5904 42.5536 76.6372 42.2707 76.6372C42.0113 76.6372 41.7401 76.5904 41.4807 76.4968C41.2213 76.4032 40.9736 76.2394 40.7614 76.017C40.5492 75.7947 40.3723 75.4904 40.2308 75.116C40.0893 74.7415 40.0304 74.2851 40.0304 73.7351C40.0304 73.267 40.0893 72.8691 40.2072 72.5532C40.3251 72.2255 40.4902 71.9681 40.6907 71.7574C40.8911 71.5585 41.1151 71.4064 41.3863 71.3128C41.6457 71.2191 41.9169 71.1723 42.1999 71.1723C42.4593 71.1723 42.7305 71.2191 42.9899 71.3128C43.2611 71.4064 43.4969 71.5702 43.7092 71.7926C43.9214 72.0149 44.0983 72.3192 44.2397 72.6936C44.3812 73.0681 44.4402 73.5245 44.4402 74.0745C44.4402 74.5426 44.3812 74.9404 44.2633 75.2564ZM54.321 76.4851C54.2621 76.4383 54.2149 76.3915 54.1913 76.3213C54.1678 76.2511 54.156 76.1692 54.156 76.0755L54.0263 71.9564C54.0263 71.8043 54.0263 71.6755 54.0498 71.5819C54.0616 71.4883 54.1088 71.4064 54.156 71.3479C54.2149 71.2894 54.2975 71.2543 54.4036 71.2309C54.5097 71.2075 54.663 71.184 54.8398 71.1723L54.828 70.9617C54.7691 70.9617 54.6748 70.9617 54.5333 70.9617C54.3918 70.9617 54.2503 70.9617 54.097 70.9617C53.9437 70.9617 53.7904 70.9617 53.6489 70.9617C53.5075 70.9617 53.3895 70.9617 53.307 70.9617C53.2363 71.1255 53.1773 71.2777 53.1066 71.4415C53.0358 71.6053 52.9769 71.7574 52.9061 71.9213L51.1964 75.8649H51.1728L49.4278 72.0032C49.3452 71.8277 49.2745 71.6521 49.192 71.4883C49.1212 71.3128 49.0387 71.1372 48.9679 70.9617C48.8618 70.9617 48.7203 70.9617 48.567 70.9617C48.4138 70.9617 48.2605 70.9617 48.119 70.9617C47.9657 70.9617 47.836 70.9617 47.7181 70.9617C47.6002 70.9617 47.5058 70.9617 47.4587 70.9617L47.4469 71.184C47.6002 71.1957 47.7417 71.2075 47.8596 71.2426C47.9775 71.266 48.0836 71.3245 48.1544 71.4064C48.2015 71.4532 48.2369 71.5 48.2605 71.5585C48.2841 71.617 48.3076 71.6755 48.3312 71.7457C48.343 71.816 48.3548 71.9096 48.3666 72.0149C48.3666 72.1202 48.3666 72.2489 48.3666 72.3894L48.2369 75.5606C48.2251 75.8064 48.2133 75.9936 48.1897 76.134C48.1661 76.2745 48.119 76.3798 48.06 76.45C48.0011 76.5202 47.9185 76.567 47.8124 76.5904C47.7063 76.6138 47.5648 76.6372 47.3997 76.6489L47.4233 76.8596C47.5648 76.8596 47.7299 76.8596 47.895 76.8596C48.06 76.8596 48.2251 76.8479 48.3902 76.8479C48.5906 76.8479 48.7675 76.8479 48.9208 76.8596C49.0741 76.8596 49.2155 76.8596 49.3452 76.8596L49.357 76.6372C49.2038 76.6255 49.0741 76.6138 48.9797 76.5904C48.8854 76.567 48.8029 76.5319 48.7557 76.4851C48.6967 76.4266 48.6732 76.3447 48.6496 76.2394C48.6378 76.134 48.626 75.9819 48.6378 75.783L48.7557 72.2489L48.7793 72.2372C49.1448 73.033 49.4985 73.817 49.8523 74.5777C50.206 75.3383 50.5597 76.1223 50.9016 76.9415L51.1964 76.9064C51.5502 76.0638 51.8921 75.233 52.2458 74.4255C52.5996 73.6064 52.9533 72.7872 53.3188 71.9564L53.3424 71.9798L53.4485 75.8649C53.4485 76.017 53.4485 76.1457 53.4367 76.2394C53.4249 76.333 53.4013 76.4149 53.3542 76.4734C53.307 76.5319 53.2363 76.5787 53.1537 76.6021C53.0594 76.6255 52.9415 76.6489 52.8 76.6606L52.8236 76.8713C52.8825 76.8713 52.9533 76.8713 53.024 76.8713C53.1066 76.8713 53.1891 76.8713 53.2716 76.8713C53.3542 76.8713 53.4485 76.8713 53.531 76.8713C53.6136 76.8713 53.7079 76.8713 53.7904 76.8713C53.8848 76.8713 53.9909 76.8713 54.1088 76.8713C54.2149 76.8713 54.3328 76.8713 54.4389 76.8713C54.5451 76.8713 54.6512 76.8713 54.7573 76.8713C54.8516 76.8713 54.946 76.8713 55.0167 76.8713L55.0285 76.6489C54.8516 76.6372 54.6983 76.6255 54.5922 76.6021C54.4861 76.5787 54.4036 76.5553 54.3446 76.5085L54.321 76.4851ZM65.1805 70.9734C64.9565 70.9734 64.7325 70.9734 64.5202 70.9734C64.2962 70.9734 64.1193 70.9734 63.9778 70.9734C63.8364 70.9734 63.6831 70.9734 63.5062 70.9734C63.3411 70.9734 63.1407 70.9734 62.9167 70.9734C62.6926 70.9734 62.4686 70.9734 62.221 70.9734C61.9852 70.9734 61.7376 70.9734 61.4899 70.9734C61.5135 71.1957 61.5253 71.383 61.5253 71.5468C61.5371 71.7106 61.5371 71.8862 61.5371 72.0734V72.4596L61.7729 72.4713C61.8083 72.2489 61.8555 72.0617 61.8908 71.9096C61.938 71.7574 61.997 71.6404 62.0913 71.5351C62.1738 71.4415 62.2917 71.3713 62.4332 71.3245C62.5747 71.2894 62.7634 71.266 62.9874 71.266H63.6713V75.8532C63.6713 76.0053 63.6595 76.134 63.6477 76.2277C63.6241 76.3213 63.5887 76.4032 63.5298 76.4617C63.4708 76.5202 63.3883 76.5553 63.2704 76.5787C63.1525 76.6021 62.9992 76.6255 62.8105 76.6372L62.8341 76.8479C62.9167 76.8479 62.9992 76.8479 63.1053 76.8479C63.1996 76.8479 63.3058 76.8479 63.4001 76.8479C63.4944 76.8479 63.6005 76.8479 63.6949 76.8479C63.7892 76.8479 63.8835 76.8479 63.9661 76.8479C64.0604 76.8479 64.1665 76.8479 64.2844 76.8479C64.4023 76.8479 64.5084 76.8479 64.6264 76.8479C64.7443 76.8479 64.8504 76.8479 64.9683 76.8479C65.0744 76.8479 65.1805 76.8479 65.2631 76.8479L65.2749 76.6255C65.0744 76.6138 64.9093 76.6021 64.7914 76.5787C64.6735 76.5553 64.591 76.5319 64.532 76.4851C64.4731 76.4383 64.4377 76.3915 64.4259 76.3213C64.4141 76.2511 64.4023 76.1692 64.4023 76.0755V71.266H65.1098C65.3456 71.266 65.5225 71.2894 65.664 71.3245C65.8055 71.3596 65.9116 71.4298 65.9941 71.5351C66.0766 71.6287 66.1356 71.7574 66.1828 71.9096C66.2299 72.0617 66.2653 72.2489 66.3007 72.4713L66.5365 72.4596C66.5365 72.3192 66.5365 72.1904 66.5365 72.0734C66.5365 71.9564 66.5483 71.8394 66.5483 71.7223C66.5601 71.6053 66.5601 71.4883 66.5719 71.3713C66.5836 71.2543 66.5954 71.1138 66.6072 70.9734C66.3596 70.9734 66.112 70.9734 65.8762 70.9734C65.6286 70.9734 65.4046 70.9734 65.1687 70.9734H65.1805ZM73.6936 76.4617C73.6229 76.4032 73.5757 76.333 73.5167 76.2277C73.4696 76.1223 73.4106 75.9819 73.3517 75.8064L71.9603 71.816C71.9132 71.6755 71.866 71.5351 71.8188 71.3713C71.7717 71.2075 71.7245 71.0319 71.6774 70.833L71.2883 70.8798C71.2411 70.9851 71.1939 71.0904 71.1468 71.1723C71.0878 71.266 71.0406 71.3713 70.9935 71.4883L69.2838 75.6309C69.1895 75.8415 69.1187 76.0053 69.048 76.134C68.9772 76.2628 68.9065 76.3564 68.8357 76.4266C68.765 76.4968 68.6707 76.5436 68.5645 76.5787C68.4584 76.6021 68.3287 76.6255 68.1636 76.6372L68.1754 76.8479C68.3287 76.8479 68.482 76.8479 68.6471 76.8362C68.8121 76.8362 68.9654 76.8245 69.1187 76.8245C69.3074 76.8245 69.496 76.8245 69.6847 76.8362C69.8733 76.8362 70.0502 76.8479 70.1917 76.8479L70.2153 76.6255C69.9559 76.6138 69.779 76.5904 69.6729 76.5436C69.5668 76.4968 69.5196 76.4266 69.5196 76.3213C69.5196 76.2628 69.5668 76.1106 69.6375 75.8766L70.1092 74.6713H72.1608L72.5971 75.9702C72.6206 76.0404 72.6442 76.1106 72.656 76.1692C72.6678 76.2277 72.6796 76.2745 72.6796 76.3213C72.6796 76.4266 72.6324 76.4968 72.5263 76.5436C72.432 76.5787 72.2669 76.6138 72.0311 76.6255L72.0547 76.8362C72.2315 76.8362 72.3966 76.8362 72.5853 76.8245C72.7621 76.8245 72.939 76.8128 73.1041 76.8128C73.3163 76.8128 73.5285 76.8128 73.729 76.8245C73.9412 76.8245 74.1299 76.8362 74.295 76.8362L74.3185 76.6138C74.1535 76.6021 74.0238 76.5904 73.9294 76.567C73.8233 76.5436 73.7408 76.5085 73.6818 76.45L73.6936 76.4617ZM70.2506 74.3202L71.2175 71.8979H71.2411L72.0547 74.3202H70.2624H70.2506ZM77.7379 71.5819C77.7615 71.4883 77.7969 71.4064 77.8558 71.3596C77.9148 71.3011 77.9973 71.266 78.0916 71.2426C78.1978 71.2191 78.3275 71.1957 78.4808 71.184L78.4572 70.9734C78.3982 70.9734 78.3275 70.9734 78.2449 70.9734C78.1624 70.9734 78.0681 70.9734 77.9737 70.9734C77.8794 70.9734 77.7851 70.9734 77.6908 70.9734C77.5964 70.9734 77.5021 70.9734 77.4314 70.9734C77.337 70.9734 77.2309 70.9734 77.113 70.9734C76.9951 70.9734 76.889 70.9734 76.7711 70.9734C76.6649 70.9734 76.5588 70.9734 76.4645 70.9734C76.3702 70.9734 76.2876 70.9734 76.2287 70.9734L76.2169 71.1957C76.382 71.2075 76.5234 71.2191 76.6296 71.2426C76.7357 71.266 76.8064 71.2894 76.8654 71.3362C76.9243 71.383 76.9597 71.4298 76.9715 71.5C76.9833 71.5702 76.9951 71.6521 76.9951 71.7457V75.8649C76.9951 76.017 76.9833 76.1457 76.9597 76.2394C76.9361 76.333 76.9008 76.4149 76.8418 76.4617C76.7828 76.5202 76.7121 76.5553 76.606 76.5787C76.5117 76.6021 76.382 76.6255 76.2169 76.6372L76.2405 76.8479C76.2994 76.8479 76.3702 76.8479 76.4527 76.8479C76.5352 76.8479 76.6296 76.8479 76.7239 76.8479C76.8182 76.8479 76.9126 76.8479 77.0069 76.8479C77.1012 76.8479 77.1955 76.8479 77.2781 76.8479C77.3724 76.8479 77.4785 76.8479 77.5964 76.8479C77.7025 76.8479 77.8204 76.8479 77.9266 76.8479C78.0327 76.8479 78.1388 76.8479 78.2449 76.8479C78.3393 76.8479 78.4218 76.8479 78.4925 76.8479V76.6255C78.3157 76.6138 78.186 76.6021 78.0799 76.5787C77.9737 76.5553 77.903 76.5319 77.844 76.4851C77.7851 76.4383 77.7497 76.3915 77.7379 76.3213C77.7261 76.2511 77.7143 76.1692 77.7143 76.0755V71.9447C77.7143 71.7926 77.7261 71.6755 77.7497 71.5702L77.7379 71.5819ZM84.6121 75.9234C84.5295 76.0755 84.447 76.1926 84.3409 76.2862C84.2347 76.3798 84.105 76.4383 83.9518 76.4851C83.7985 76.5202 83.598 76.5436 83.3622 76.5436H83.0439C82.8788 76.5436 82.7373 76.5319 82.643 76.5085C82.5368 76.4851 82.4661 76.45 82.4071 76.4032C82.3482 76.3564 82.3128 76.2862 82.301 76.1926C82.2774 76.0989 82.2774 75.9936 82.2774 75.8532V71.9681C82.2774 71.816 82.2892 71.6872 82.3128 71.5936C82.3364 71.5 82.3718 71.4181 82.4307 71.3596C82.4897 71.3011 82.5722 71.266 82.6783 71.2426C82.7845 71.2191 82.9259 71.1957 83.091 71.184L83.0674 70.9734C83.0085 70.9734 82.9377 70.9734 82.8552 70.9734C82.7727 70.9734 82.6783 70.9734 82.5722 70.9734C82.4779 70.9734 82.3718 70.9734 82.2774 70.9734C82.1831 70.9734 82.0888 70.9734 82.0062 70.9734C81.9119 70.9734 81.8058 70.9734 81.6879 70.9734C81.57 70.9734 81.4639 70.9734 81.346 70.9734C81.2398 70.9734 81.1337 70.9734 81.0394 70.9734C80.9451 70.9734 80.8625 70.9734 80.7918 70.9734L80.7682 71.1957C80.9451 71.2075 81.0866 71.2191 81.1927 71.2426C81.2988 71.266 81.3813 71.2894 81.4285 71.3362C81.4874 71.383 81.5228 71.4298 81.5346 71.5C81.5582 71.5702 81.5582 71.6521 81.5582 71.7457V75.8649C81.5582 76.017 81.5464 76.1457 81.5228 76.2394C81.4992 76.333 81.4639 76.4149 81.4049 76.4617C81.346 76.5202 81.2634 76.5553 81.1573 76.5787C81.0512 76.6021 80.9215 76.6255 80.7446 76.6372L80.7682 76.8479C80.8272 76.8479 80.8979 76.8479 80.9922 76.8479C81.0866 76.8479 81.1691 76.8479 81.2752 76.8479C81.3695 76.8479 81.4757 76.8479 81.57 76.8479C81.6643 76.8479 81.7586 76.8479 81.8412 76.8479H82.0534C82.1359 76.8479 82.2185 76.8479 82.3246 76.8479C82.4307 76.8479 82.5486 76.8479 82.6901 76.8479C82.8316 76.8479 82.9967 76.8479 83.1971 76.8479C83.3976 76.8479 83.6334 76.8479 83.9046 76.8479H84.8479C84.8479 76.7777 84.8597 76.684 84.8832 76.567C84.895 76.45 84.9186 76.333 84.9422 76.2043C84.9658 76.0755 84.9894 75.9468 85.0247 75.8064C85.0483 75.666 85.0837 75.5489 85.1191 75.4319L84.8832 75.3734C84.7889 75.5957 84.7064 75.783 84.6238 75.9351L84.6121 75.9234ZM92.4531 71.6638C92.1819 71.4064 91.8635 71.1957 91.4862 71.0553C91.1089 70.9149 90.6962 70.8447 90.2481 70.8447C89.7883 70.8447 89.3756 70.9266 88.9983 71.0787C88.621 71.2309 88.3026 71.4532 88.0314 71.7223C87.7602 72.0032 87.5598 72.3308 87.4065 72.717C87.2532 73.1032 87.1825 73.5128 87.1825 73.9691C87.1825 74.4255 87.2532 74.8351 87.4065 75.2096C87.5598 75.584 87.7602 75.8883 88.0314 76.1574C88.3026 76.4149 88.621 76.6255 88.9983 76.766C89.3756 76.9064 89.7883 76.9766 90.2364 76.9766C90.6962 76.9766 91.1089 76.8947 91.4862 76.7426C91.8635 76.5904 92.1819 76.3681 92.4531 76.0872C92.7243 75.8064 92.9247 75.4787 93.078 75.0926C93.2313 74.7064 93.302 74.2968 93.302 73.8404C93.302 73.384 93.2313 72.9745 93.078 72.6C92.9247 72.2255 92.7243 71.9096 92.4531 71.6521V71.6638ZM92.2762 75.2681C92.1583 75.5957 91.9932 75.8532 91.7928 76.0638C91.5923 76.2628 91.3683 76.4149 91.0971 76.5085C90.8377 76.6021 90.5665 76.6489 90.2835 76.6489C90.0241 76.6489 89.7529 76.6021 89.4935 76.5085C89.2223 76.4149 88.9865 76.2511 88.7743 76.0287C88.562 75.8064 88.3852 75.5021 88.2555 75.1277C88.114 74.7532 88.055 74.2968 88.055 73.7468C88.055 73.2787 88.114 72.8809 88.2319 72.5649C88.3498 72.2372 88.5149 71.9798 88.7153 71.7691C88.9158 71.5702 89.1398 71.4181 89.411 71.3245C89.6704 71.2309 89.9416 71.184 90.2246 71.184C90.484 71.184 90.7552 71.2309 91.0146 71.3245C91.2858 71.4181 91.5216 71.5819 91.7338 71.8043C91.946 72.0266 92.1229 72.3308 92.2526 72.7053C92.3941 73.0798 92.4531 73.5362 92.4531 74.0862C92.4531 74.5543 92.3941 74.9521 92.2762 75.2681ZM100.341 76.5085C100.27 76.4734 100.212 76.4266 100.153 76.3564C100.094 76.2979 100.023 76.2043 99.9521 76.0989C99.8932 76.017 99.8224 75.9 99.7281 75.7596C99.6338 75.6191 99.5394 75.4553 99.4333 75.2564C99.3272 75.0692 99.2093 74.8585 99.0796 74.6245C98.9499 74.3904 98.8202 74.1564 98.6905 73.9106C98.8673 73.8404 99.0324 73.7585 99.1739 73.6532C99.3154 73.5479 99.4451 73.4309 99.5512 73.2904C99.6573 73.15 99.7399 72.9979 99.7988 72.834C99.8578 72.6702 99.8932 72.4947 99.8932 72.2957C99.8932 72.0149 99.8342 71.7809 99.7045 71.6053C99.5866 71.4181 99.4215 71.2777 99.2211 71.1723C99.0206 71.067 98.7966 70.9968 98.549 70.95C98.3014 70.9032 98.0538 70.8915 97.8062 70.8915C97.6293 70.8915 97.4642 70.9032 97.2991 70.9266C97.1341 70.95 96.969 70.9617 96.8039 70.9617C96.7096 70.9617 96.6035 70.9617 96.4974 70.9617C96.3912 70.9617 96.2851 70.9617 96.179 70.9617C96.0729 70.9617 95.9786 70.9617 95.896 70.9617C95.8135 70.9617 95.7309 70.9617 95.6602 70.9617L95.6484 71.184C95.8253 71.1957 95.955 71.2075 96.0611 71.2309C96.1672 71.2543 96.238 71.2777 96.2969 71.3245C96.3441 71.3713 96.3795 71.4181 96.403 71.4883C96.4148 71.5585 96.4266 71.6404 96.4266 71.734V75.8532C96.4266 76.0053 96.4148 76.134 96.403 76.2277C96.3795 76.3213 96.3441 76.4032 96.2969 76.45C96.238 76.5085 96.1672 76.5436 96.0729 76.567C95.9786 76.5904 95.8489 76.6138 95.6838 76.6255L95.6956 76.8362C95.7545 76.8362 95.8253 76.8362 95.9078 76.8362C95.9903 76.8362 96.0729 76.8362 96.1672 76.8362C96.2615 76.8362 96.3559 76.8362 96.4502 76.8362C96.5445 76.8362 96.6271 76.8362 96.7096 76.8362C96.91 76.8362 97.1105 76.8362 97.3109 76.8479C97.5114 76.8479 97.7236 76.8479 97.9123 76.8479V76.6255C97.7236 76.6255 97.5703 76.6138 97.4642 76.5904C97.3581 76.567 97.2874 76.5319 97.2284 76.4851C97.1812 76.4383 97.1459 76.3798 97.1459 76.3213C97.1341 76.2511 97.1341 76.1692 97.1341 76.0755V74.133C97.2048 74.133 97.252 74.1447 97.2991 74.1447C97.3463 74.1447 97.3817 74.1447 97.4171 74.1447H97.6057C97.7 74.1447 97.7708 74.1447 97.8297 74.1681C97.8887 74.1798 97.9359 74.2032 97.9712 74.2149C98.0066 74.2383 98.0302 74.2617 98.0538 74.2968C98.0774 74.3319 98.1009 74.367 98.1245 74.4021C98.2778 74.6713 98.4311 74.9287 98.5726 75.1862C98.7141 75.4436 98.8438 75.6777 98.9617 75.9C99.0796 76.1223 99.1857 76.3096 99.2682 76.4734C99.3508 76.6372 99.4215 76.766 99.4569 76.8479C99.5159 76.8479 99.5748 76.8362 99.6456 76.8362C99.7163 76.8362 99.7753 76.8362 99.8342 76.8362C100.023 76.8362 100.212 76.8362 100.412 76.8479C100.612 76.8479 100.777 76.8479 100.895 76.8479L100.907 76.6255C100.766 76.6138 100.648 76.6021 100.553 76.5787C100.459 76.567 100.388 76.5319 100.318 76.4968L100.341 76.5085ZM97.535 73.8404H97.3345C97.2991 73.8404 97.2638 73.8404 97.2402 73.8404C97.2048 73.8404 97.1694 73.8404 97.1459 73.8287V71.7574C97.1459 71.6755 97.1459 71.6053 97.1577 71.5351C97.1694 71.4649 97.1812 71.4181 97.2166 71.3713C97.252 71.3245 97.2991 71.2894 97.3699 71.266C97.4406 71.2426 97.5468 71.2309 97.6647 71.2309C98.0891 71.2309 98.4193 71.3245 98.6787 71.5234C98.9381 71.7106 99.056 72.0149 99.056 72.4362C99.056 72.9277 98.9263 73.2904 98.6551 73.5128C98.3839 73.7351 98.0184 73.8404 97.5232 73.8404H97.535ZM104.409 71.5819C104.433 71.4883 104.468 71.4064 104.527 71.3596C104.586 71.3011 104.669 71.266 104.763 71.2426C104.869 71.2191 104.999 71.1957 105.152 71.184L105.128 70.9734C105.069 70.9734 104.999 70.9734 104.916 70.9734C104.834 70.9734 104.739 70.9734 104.645 70.9734C104.551 70.9734 104.456 70.9734 104.362 70.9734C104.268 70.9734 104.173 70.9734 104.103 70.9734C104.008 70.9734 103.902 70.9734 103.784 70.9734C103.666 70.9734 103.56 70.9734 103.442 70.9734C103.336 70.9734 103.23 70.9734 103.136 70.9734C103.041 70.9734 102.959 70.9734 102.9 70.9734L102.888 71.1957C103.053 71.2075 103.195 71.2191 103.301 71.2426C103.407 71.266 103.478 71.2894 103.537 71.3362C103.596 71.383 103.631 71.4298 103.643 71.5C103.654 71.5702 103.666 71.6521 103.666 71.7457V75.8649C103.666 76.017 103.654 76.1457 103.631 76.2394C103.607 76.333 103.572 76.4149 103.513 76.4617C103.454 76.5202 103.383 76.5553 103.277 76.5787C103.183 76.6021 103.053 76.6255 102.888 76.6372L102.912 76.8479C102.971 76.8479 103.041 76.8479 103.124 76.8479C103.206 76.8479 103.301 76.8479 103.395 76.8479C103.489 76.8479 103.584 76.8479 103.678 76.8479C103.772 76.8479 103.867 76.8479 103.949 76.8479C104.044 76.8479 104.15 76.8479 104.268 76.8479C104.374 76.8479 104.492 76.8479 104.598 76.8479C104.704 76.8479 104.81 76.8479 104.916 76.8479C105.01 76.8479 105.093 76.8479 105.164 76.8479V76.6255C104.987 76.6138 104.857 76.6021 104.751 76.5787C104.645 76.5553 104.574 76.5319 104.515 76.4851C104.468 76.4383 104.433 76.3915 104.409 76.3213C104.397 76.2511 104.386 76.1692 104.386 76.0755V71.9447C104.386 71.7926 104.397 71.6755 104.421 71.5702L104.409 71.5819ZM113.441 70.9734C113.37 70.9734 113.288 70.9734 113.205 70.9851C113.123 70.9851 113.04 70.9851 112.946 70.9968C112.863 70.9968 112.781 70.9968 112.698 70.9968C112.498 70.9968 112.309 70.9968 112.132 70.9851C111.955 70.9851 111.79 70.9851 111.661 70.9851L111.649 71.2075C111.814 71.2191 111.955 71.2309 112.061 71.2543C112.168 71.2777 112.25 71.3128 112.309 71.3596C112.368 71.4181 112.415 71.5 112.439 71.6053C112.462 71.7106 112.474 71.8628 112.474 72.05V75.5957L112.451 75.6074L108.501 70.9851C108.394 70.9851 108.265 70.9851 108.147 70.9851C108.017 70.9851 107.899 70.9851 107.781 70.9851C107.663 70.9851 107.557 70.9851 107.463 70.9851C107.369 70.9851 107.298 70.9851 107.239 70.9851L107.227 71.2075C107.345 71.2191 107.439 71.2309 107.522 71.2426C107.604 71.2543 107.663 71.2777 107.722 71.3011C107.77 71.3245 107.828 71.3596 107.864 71.3947C107.911 71.4298 107.946 71.4766 107.982 71.5351C108.029 71.5819 108.053 71.6287 108.076 71.6755C108.1 71.7223 108.123 71.7809 108.135 71.8394C108.147 71.9096 108.159 71.9915 108.159 72.0968C108.159 72.2021 108.17 72.3426 108.17 72.5181V75.584C108.17 75.8298 108.159 76.017 108.135 76.1574C108.111 76.2979 108.064 76.4032 108.005 76.4734C107.946 76.5436 107.852 76.5904 107.746 76.6138C107.64 76.6372 107.498 76.6606 107.333 76.6723L107.357 76.883C107.498 76.883 107.663 76.883 107.828 76.883C107.994 76.883 108.159 76.8713 108.324 76.8713C108.524 76.8713 108.713 76.8713 108.89 76.883C109.067 76.883 109.22 76.883 109.361 76.883L109.373 76.6606C109.208 76.6489 109.067 76.6372 108.96 76.6138C108.854 76.5904 108.772 76.5553 108.713 76.5085C108.654 76.45 108.607 76.3681 108.583 76.2628C108.56 76.1574 108.548 76.0053 108.548 75.8064V72.2255L108.571 72.2138L111.873 76.0989C111.991 76.2394 112.109 76.3798 112.215 76.5202C112.321 76.6606 112.427 76.8128 112.533 76.9532L112.851 76.8947V72.284C112.851 72.0383 112.863 71.8511 112.887 71.7106C112.91 71.5702 112.958 71.4649 113.017 71.3947C113.075 71.3245 113.158 71.2777 113.264 71.2543C113.37 71.2309 113.5 71.2075 113.665 71.1957L113.653 70.9851C113.594 70.9851 113.524 70.9851 113.453 70.9851L113.441 70.9734ZM121.494 74.25C121.412 74.25 121.329 74.25 121.247 74.25C121.164 74.25 121.07 74.25 120.987 74.25C120.893 74.25 120.81 74.25 120.728 74.25C120.633 74.25 120.539 74.25 120.421 74.25C120.315 74.25 120.197 74.25 120.079 74.25C119.961 74.25 119.843 74.25 119.726 74.25C119.608 74.25 119.502 74.25 119.395 74.25L119.384 74.4723C119.608 74.484 119.796 74.4957 119.926 74.5191C120.068 74.5426 120.174 74.566 120.244 74.6128C120.315 74.6596 120.362 74.7064 120.398 74.7766C120.421 74.8468 120.433 74.9287 120.433 75.0223V76.2394C120.433 76.3213 120.374 76.3915 120.28 76.4383C120.174 76.4968 120.056 76.5319 119.914 76.567C119.773 76.6021 119.643 76.6255 119.502 76.6372C119.372 76.6489 119.278 76.6606 119.219 76.6606C118.794 76.6606 118.429 76.5904 118.122 76.4383C117.804 76.2862 117.544 76.0872 117.344 75.8298C117.143 75.5723 116.978 75.2798 116.884 74.9287C116.778 74.5894 116.731 74.2149 116.731 73.817C116.731 73.4192 116.778 73.0681 116.884 72.7404C116.978 72.4128 117.143 72.1436 117.344 71.9096C117.544 71.6755 117.804 71.5 118.122 71.3713C118.44 71.2426 118.806 71.1723 119.23 71.1723C119.454 71.1723 119.667 71.1957 119.867 71.2543C120.068 71.3128 120.233 71.3947 120.386 71.5234C120.539 71.6404 120.657 71.7926 120.751 71.9681C120.846 72.1436 120.905 72.3543 120.916 72.6L121.176 72.5766C121.176 72.3192 121.176 72.0734 121.176 71.8394C121.176 71.6053 121.188 71.3596 121.211 71.1021C121.093 71.067 120.952 71.0436 120.799 71.0085C120.645 70.9851 120.492 70.95 120.339 70.9266C120.185 70.9032 120.032 70.8915 119.879 70.8798C119.726 70.8681 119.584 70.8564 119.454 70.8564C118.947 70.8564 118.488 70.9266 118.051 71.0553C117.615 71.184 117.238 71.383 116.908 71.6404C116.577 71.8979 116.33 72.2255 116.141 72.6234C115.952 73.0096 115.858 73.466 115.858 73.9926C115.858 74.4489 115.941 74.8585 116.106 75.233C116.271 75.6074 116.495 75.9234 116.79 76.1809C117.084 76.4383 117.438 76.6489 117.839 76.7894C118.24 76.9298 118.688 77 119.171 77C119.502 77 119.832 76.9649 120.185 76.8947C120.539 76.8245 120.869 76.7426 121.211 76.6606C121.188 76.5436 121.176 76.4032 121.176 76.216C121.176 76.0287 121.164 75.8415 121.164 75.6543V75.2564C121.164 75.1043 121.176 74.9872 121.188 74.8819C121.199 74.7883 121.235 74.7064 121.27 74.6479C121.317 74.5894 121.376 74.5543 121.447 74.5309C121.518 74.5074 121.612 74.484 121.742 74.4723L121.718 74.2617C121.659 74.2617 121.589 74.2617 121.506 74.2617L121.494 74.25Z" fill="black"></path></svg>